# Blender v2.75 (sub 4) OBJ File: 'birdbath.blend'
# www.blender.org
o Cube.001
v -0.400000 -0.500000 0.400000
v -0.400000 -0.400000 0.400000
v -0.400000 -0.500000 -0.400000
v -0.400000 -0.400000 -0.400000
v 0.400000 -0.500000 0.400000
v 0.400000 -0.400000 0.400000
v 0.400000 -0.500000 -0.400000
v 0.400000 -0.400000 -0.400000
v -0.100000 -0.400000 0.100000
v -0.100000 -0.400000 -0.100000
v 0.100000 -0.400000 -0.100000
v 0.100000 -0.400000 0.100000
v -0.100000 0.200000 0.100000
v -0.100000 0.200000 -0.100000
v 0.100000 0.200000 -0.100000
v 0.100000 0.200000 0.100000
v -0.500000 0.200000 0.500000
v -0.500000 0.200000 -0.500000
v 0.500000 0.200000 -0.500000
v 0.500000 0.200000 0.500000
v -0.500000 0.450000 0.500000
v -0.500000 0.450000 -0.500000
v 0.500000 0.450000 -0.500000
v 0.500000 0.450000 0.500000
v -0.404231 0.376539 0.404231
v -0.404231 0.376539 -0.404231
v 0.404231 0.376539 -0.404231
v 0.404231 0.376539 0.404231
vt 0.100000 0.100000
vt 0.900000 0.100000
vt 0.900000 0.000000
vt 0.100000 0.000000
vt 0.100000 0.900000
vt 0.900000 0.900000
vt 0.400000 0.400000
vt 0.400000 0.600000
vt 0.400000 0.100000
vt 0.600000 0.100000
vt 0.600000 0.700000
vt 0.400000 0.700000
vt 0.600000 0.400000
vt 0.600000 0.600000
vt 1.000000 0.000000
vt 0.000000 0.000000
vt 0.000000 0.700000
vt 1.000000 0.700000
vt 1.000000 0.950000
vt 0.000000 0.950000
vt 0.000000 1.000000
vt 1.000000 1.000000
vt 0.095769 0.095769
vt 0.095769 0.904231
vt 0.904231 0.095769
vt 0.904231 0.904231
vn -1.000000 0.000000 0.000000
vn 0.000000 0.000000 -1.000000
vn 1.000000 0.000000 0.000000
vn 0.000000 0.000000 1.000000
vn 0.000000 -1.000000 0.000000
vn 0.000000 1.000000 0.000000
vn 0.608600 0.793500 0.000000
vn 0.000000 0.793500 -0.608600
vn 0.000000 0.793500 0.608600
vn -0.608600 0.793500 0.000000
g Cube.001_Cube.001_Material
s off
f 2/1/1 4/2/1 3/3/1 1/4/1
f 4/1/2 8/2/2 7/3/2 3/4/2
f 8/2/3 6/1/3 5/4/3 7/3/3
f 6/2/4 2/1/4 1/4/4 5/3/4
f 1/1/5 3/5/5 7/6/5 5/2/5
f 4/5/6 2/1/6 9/7/6 10/8/6
f 12/9/3 11/10/3 15/11/3 16/12/3
f 2/1/6 6/2/6 12/13/6 9/7/6
f 8/6/6 4/5/6 10/8/6 11/14/6
f 6/2/6 8/6/6 11/14/6 12/13/6
f 13/7/5 16/13/5 20/15/5 17/16/5
f 10/10/1 9/9/1 13/12/1 14/11/1
f 9/9/4 12/10/4 16/11/4 13/12/4
f 11/10/2 10/9/2 14/12/2 15/11/2
f 20/17/3 19/18/3 23/19/3 24/20/3
f 15/14/5 14/8/5 18/21/5 19/22/5
f 16/13/5 15/14/5 19/22/5 20/15/5
f 14/8/5 13/7/5 17/16/5 18/21/5
f 22/21/7 21/16/7 25/23/7 26/24/7
f 18/18/1 17/17/1 21/20/1 22/19/1
f 17/17/4 20/18/4 24/19/4 21/20/4
f 19/18/2 18/17/2 22/20/2 23/19/2
f 21/16/8 24/15/8 28/25/8 25/23/8
f 23/22/9 22/21/9 26/24/9 27/26/9
f 24/15/10 23/22/10 27/26/10 28/25/10
g Cube.001_Cube.001_Water.001
f 28/15/6 27/22/6 26/21/6 25/16/6
