# Blender v2.75 (sub 0) OBJ File: 'toilet.blend'
# www.blender.org
o Toilet_open_Cube.002
v -0.216380 -0.364267 -0.195066
v 0.230162 -0.364267 -0.195066
v 0.230162 -0.364267 0.375364
v -0.216380 -0.364267 0.375364
v -0.216380 -0.503120 -0.195066
v -0.216380 -0.503120 0.375364
v 0.230162 -0.503120 0.375364
v 0.230162 -0.503120 -0.195065
v -0.026301 0.497050 0.418905
v -0.099953 0.497050 0.418905
v -0.099953 0.495923 0.354172
v -0.026301 0.495923 0.354172
v -0.099953 0.541235 0.418294
v -0.099953 0.540108 0.353560
v -0.026301 0.541235 0.418294
v -0.026301 0.540108 0.353560
v 0.332628 0.485120 0.489409
v -0.318846 0.485120 0.489409
v 0.332628 0.485120 0.286360
v -0.318846 0.485120 0.286360
v -0.318846 -0.032421 0.286360
v 0.332628 -0.032421 0.286360
v 0.332628 -0.367155 0.286360
v -0.318846 -0.367155 0.286360
v 0.332628 -0.032421 0.489409
v -0.318846 -0.032421 0.489409
v -0.318846 -0.367155 0.489409
v 0.332628 -0.367155 0.489409
v -0.318846 -0.032421 -0.334670
v -0.318846 -0.367155 -0.334670
v 0.332628 -0.032421 -0.334670
v 0.332628 -0.367155 -0.334670
v 0.074405 0.497050 0.418905
v 0.000753 0.497050 0.418905
v 0.000753 0.495923 0.354172
v 0.074405 0.495923 0.354172
v 0.000753 0.541235 0.418294
v 0.000753 0.540108 0.353560
v 0.074405 0.541235 0.418294
v 0.074405 0.540108 0.353560
v 0.298674 -0.026545 0.261491
v -0.290831 -0.026545 0.261491
v -0.290831 -0.027680 0.196323
v 0.298674 -0.027680 0.196323
v -0.290831 0.469302 0.253946
v -0.290831 0.468168 0.188777
v 0.298674 0.469302 0.253946
v 0.298675 0.468168 0.188777
v -0.230085 -0.040764 0.201747
v 0.243868 -0.040764 0.201747
v 0.243868 -0.040764 -0.250057
v -0.230085 -0.040764 -0.250057
v -0.230085 -0.318566 0.201747
v 0.243867 -0.318566 0.201747
v 0.163555 -0.203467 -0.206424
v -0.149773 -0.203467 -0.206424
vt 0.839078 0.324803
vt -0.012876 0.324803
vt -0.012876 0.991727
vt 0.839077 0.991727
vt -0.096533 0.324803
vt -0.303914 0.324803
vt -0.303914 0.991727
vt -0.096533 0.991727
vt 0.839078 -0.096533
vt 0.839077 -0.303914
vt -0.012876 -0.303914
vt -0.012876 -0.096533
vt -0.077905 0.608692
vt -0.077905 0.498690
vt 0.018775 0.498690
vt 0.018775 0.608692
vt -0.077905 1.189870
vt -0.076993 1.255861
vt 0.019689 1.254178
vt 0.018775 1.188187
vt -0.076993 0.498690
vt -0.076993 0.608692
vt 0.019689 0.608692
vt 0.019689 0.498690
vt 1.188187 0.608692
vt 1.188187 0.498690
vt 1.254178 0.498690
vt 1.254178 0.608692
vt 1.255861 0.608692
vt 1.255861 0.498690
vt 1.189870 0.498690
vt 1.189870 0.608692
vt 0.120055 1.144763
vt 0.120055 0.171767
vt -0.183205 0.171767
vt -0.183205 1.144763
vt -0.183205 0.399088
vt 0.120055 0.399088
vt 0.120055 -0.100846
vt -0.183205 -0.100846
vt 1.047581 0.399088
vt 1.047581 -0.100846
vt 0.246427 1.012196
vt 0.246427 0.304334
vt 0.399088 1.144763
vt 0.399088 0.171767
vt -0.100846 0.171767
vt -0.100846 1.144763
vt 1.047581 0.171767
vt 1.047581 1.144763
vt 0.120055 1.172052
vt -0.183205 1.172052
vt -0.077905 0.759099
vt -0.077905 0.649098
vt 0.018775 0.649098
vt 0.018775 0.759099
vt -0.076993 0.649098
vt -0.076993 0.759099
vt 0.019689 0.759099
vt 0.019689 0.649098
vt 1.188187 0.759099
vt 1.188187 0.649098
vt 1.254178 0.649098
vt 1.254178 0.759099
vt 1.255861 0.759099
vt 1.255861 0.649098
vt 1.189870 0.649098
vt 1.189870 0.759099
vt 1.172052 0.171767
vt 1.172052 1.144763
vt 0.921209 0.386628
vt 0.246427 0.386628
vt 0.246427 -0.028277
vt 0.856042 0.143627
vt 0.921209 0.304334
vt 0.921209 1.012196
vt 0.856042 0.892247
vt 0.856042 0.424283
vt 0.386628 1.012196
vt 0.386628 0.304334
vt 0.143627 0.424283
vt 0.143627 0.892247
vt -0.028277 1.012196
vt -0.028277 0.304334
vt 0.085590 0.552995
vt 0.926569 0.552921
vt 0.926318 0.442387
vt 0.085337 0.442464
vt 0.469592 0.001391
vt 0.469592 1.001104
vt 0.580109 1.001104
vt 0.580109 0.001391
vt 0.926615 0.799443
vt 0.085637 0.800223
vt 0.085291 0.689692
vt 0.926271 0.688910
vt 0.092622 1.001102
vt 0.092622 0.001391
vt 0.933506 0.001391
vt 0.933506 1.001104
vt 0.935429 1.001104
vt 0.935429 0.001391
vt 0.094547 0.001391
vt 0.094547 1.001102
vn 0.000000 1.000000 0.000000
vn -0.000000 0.000000 1.000000
vn -1.000000 0.000000 -0.000000
vn 0.000000 -0.000000 -1.000000
vn 1.000000 -0.000000 0.000000
vn 0.000000 -0.999800 0.017400
vn 0.000000 0.999800 -0.017400
vn 0.000000 -0.013800 -0.999900
vn 0.000000 0.013800 0.999900
vn 0.000000 -1.000000 0.000000
vn 0.000000 0.995200 -0.098100
vn 0.975000 0.189300 0.116400
vn 0.093600 0.995600 0.000000
vn 0.000000 0.995200 0.098100
vn -0.093600 0.995600 -0.000000
vn -0.000000 0.962500 0.271400
vn -0.975000 0.189300 0.116400
vn -0.000000 0.259000 0.965900
vn 0.000000 -0.015200 -0.999900
vn -0.000000 0.015200 0.999900
g Toilet_open_Cube.002_White
s off
f 5/1/1 6/2/1 7/3/1 8/4/1
f 1/5/2 5/6/2 8/7/2 2/8/2
f 2/9/3 8/10/3 7/11/3 3/12/3
f 3/8/4 7/7/4 6/6/4 4/5/4
f 5/10/5 1/9/5 4/12/5 6/11/5
f 9/13/6 10/14/6 11/15/6 12/16/6
f 10/17/3 13/18/3 14/19/3 11/20/3
f 13/21/7 15/22/7 16/23/7 14/24/7
f 15/18/5 9/17/5 12/20/5 16/19/5
f 12/25/8 11/26/8 14/27/8 16/28/8
f 15/29/9 13/30/9 10/31/9 9/32/9
f 19/33/1 20/34/1 18/35/1 17/36/1
f 26/37/3 21/38/3 24/39/3 27/40/3
f 31/41/5 22/38/5 23/39/5 32/42/5
f 28/36/10 27/35/10 24/34/10 23/33/10
f 21/34/11 22/33/11 50/43/11 49/44/11
f 25/45/2 26/46/2 27/47/2 28/48/2
f 21/38/3 29/41/3 30/42/3 24/39/3
f 29/46/4 31/45/4 32/48/4 30/47/4
f 22/38/5 25/37/5 28/40/5 23/39/5
f 23/33/10 24/34/10 30/49/10 32/50/10
f 25/37/5 22/38/5 19/51/5 17/52/5
f 33/53/6 34/54/6 35/55/6 36/56/6
f 34/17/3 37/18/3 38/19/3 35/20/3
f 37/57/7 39/58/7 40/59/7 38/60/7
f 39/18/5 33/17/5 36/20/5 40/19/5
f 36/61/8 35/62/8 38/63/8 40/64/8
f 39/65/9 37/66/9 34/67/9 33/68/9
f 22/45/4 21/46/4 20/69/4 19/70/4
f 21/38/3 26/37/3 18/52/3 20/51/3
f 26/46/2 25/45/2 17/70/2 18/69/2
f 52/71/12 49/72/12 53/73/12 56/74/12
f 29/49/13 21/34/13 49/44/13 52/75/13
f 31/50/14 29/49/14 52/75/14 51/76/14
f 22/33/15 31/50/15 51/76/15 50/43/15
f 55/77/16 56/78/16 53/44/16 54/43/16
f 50/72/17 51/71/17 55/74/17 54/73/17
f 51/79/18 52/80/18 56/81/18 55/82/18
f 49/80/4 50/79/4 54/83/4 53/84/4
g Toilet_open_Cube.002_Brown
f 42/85/3 45/86/3 46/87/3 43/88/3
f 45/89/7 47/90/7 48/91/7 46/92/7
f 47/93/5 41/94/5 44/95/5 48/96/5
f 44/97/19 43/98/19 46/99/19 48/100/19
f 47/101/20 45/102/20 42/103/20 41/104/20
