# Blender v2.79 (sub 0) OBJ File: 'ingot_big.blend'
# www.blender.org
mtllib ingot_7.mtl
o Cube.006_Cube.002
v -0.241509 -0.500000 -0.016983
v -0.191239 -0.375000 -0.054357
v -0.241509 -0.500000 -0.483017
v -0.191239 -0.375000 -0.445643
v -0.008491 -0.500000 -0.016983
v -0.058761 -0.375000 -0.054357
v -0.008491 -0.500000 -0.483017
v -0.058761 -0.375000 -0.445643
vt 1.000000 0.235294
vt 1.000000 0.411765
vt 0.000000 0.411765
vt 0.000000 0.235294
vt 0.500000 0.823529
vt 0.500000 1.000000
vt 0.000000 1.000000
vt -0.000000 0.823529
vt 0.000000 0.647059
vt 1.000000 0.647059
vt 1.000000 0.823529
vt 1.000000 1.000000
vt 0.500000 1.000000
vt 0.500000 0.823529
vt 0.000000 -0.000000
vt 1.000000 -0.000000
vn -0.9278 0.3731 0.0000
vn 0.0000 0.2865 -0.9581
vn 0.9278 0.3731 0.0000
vn 0.0000 0.2865 0.9581
vn 0.0000 -1.0000 0.0000
vn 0.0000 1.0000 0.0000
usemtl None
s off
f 1/1/1 2/2/1 4/3/1 3/4/1
f 3/5/2 4/6/2 8/7/2 7/8/2
f 7/8/3 8/9/3 6/10/3 5/11/3
f 5/11/4 6/12/4 2/13/4 1/14/4
f 3/4/5 7/15/5 5/16/5 1/1/5
f 8/9/6 4/3/6 2/2/6 6/10/6
o Cube.005_Cube.002
v -0.491509 -0.500000 -0.016983
v -0.441239 -0.375000 -0.054357
v -0.491508 -0.500000 -0.483017
v -0.441239 -0.375000 -0.445643
v -0.258492 -0.500000 -0.016983
v -0.308761 -0.375000 -0.054357
v -0.258491 -0.500000 -0.483017
v -0.308761 -0.375000 -0.445643
vt 1.000000 0.235294
vt 1.000000 0.411765
vt 0.000000 0.411765
vt 0.000000 0.235294
vt 0.500000 0.823529
vt 0.500000 1.000000
vt 0.000000 1.000000
vt -0.000000 0.823529
vt 0.000000 0.647059
vt 1.000000 0.647059
vt 1.000000 0.823529
vt 1.000000 1.000000
vt 0.500000 1.000000
vt 0.500000 0.823529
vt 0.000000 -0.000000
vt 1.000000 -0.000000
vn -0.9278 0.3731 -0.0000
vn 0.0000 0.2865 -0.9581
vn 0.9278 0.3731 0.0000
vn -0.0000 0.2865 0.9581
vn 0.0000 -1.0000 0.0000
vn 0.0000 1.0000 0.0000
usemtl None
s off
f 9/17/7 10/18/7 12/19/7 11/20/7
f 11/21/8 12/22/8 16/23/8 15/24/8
f 15/24/9 16/25/9 14/26/9 13/27/9
f 13/27/10 14/28/10 10/29/10 9/30/10
f 11/20/11 15/31/11 13/32/11 9/17/11
f 16/25/12 12/19/12 10/18/12 14/26/12
o Cube.004_Cube.002
v -0.258491 -0.500000 0.016983
v -0.308761 -0.375000 0.054357
v -0.258492 -0.500000 0.483017
v -0.308761 -0.375000 0.445643
v -0.491508 -0.500000 0.016983
v -0.441239 -0.375000 0.054357
v -0.491509 -0.500000 0.483017
v -0.441239 -0.375000 0.445643
vt 1.000000 0.235294
vt 1.000000 0.411765
vt 0.000000 0.411765
vt 0.000000 0.235294
vt 0.500000 0.823529
vt 0.500000 1.000000
vt 0.000000 1.000000
vt -0.000000 0.823529
vt 0.000000 0.647059
vt 1.000000 0.647059
vt 1.000000 0.823529
vt 1.000000 1.000000
vt 0.500000 1.000000
vt 0.500000 0.823529
vt 0.000000 -0.000000
vt 1.000000 -0.000000
vn 0.9278 0.3731 0.0000
vn -0.0000 0.2865 0.9581
vn -0.9278 0.3731 -0.0000
vn 0.0000 0.2865 -0.9581
vn 0.0000 -1.0000 0.0000
vn 0.0000 1.0000 0.0000
usemtl None
s off
f 17/33/13 18/34/13 20/35/13 19/36/13
f 19/37/14 20/38/14 24/39/14 23/40/14
f 23/40/15 24/41/15 22/42/15 21/43/15
f 21/43/16 22/44/16 18/45/16 17/46/16
f 19/36/17 23/47/17 21/48/17 17/33/17
f 24/41/18 20/35/18 18/34/18 22/42/18
o Cube.003_Cube.002
v -0.008491 -0.500000 0.016983
v -0.058761 -0.375000 0.054357
v -0.008492 -0.500000 0.483017
v -0.058761 -0.375000 0.445643
v -0.241508 -0.500000 0.016983
v -0.191239 -0.375000 0.054357
v -0.241509 -0.500000 0.483017
v -0.191239 -0.375000 0.445643
vt 1.000000 0.235294
vt 1.000000 0.411765
vt 0.000000 0.411765
vt 0.000000 0.235294
vt 0.500000 0.823529
vt 0.500000 1.000000
vt 0.000000 1.000000
vt -0.000000 0.823529
vt 0.000000 0.647059
vt 1.000000 0.647059
vt 1.000000 0.823529
vt 1.000000 1.000000
vt 0.500000 1.000000
vt 0.500000 0.823529
vt 0.000000 -0.000000
vt 1.000000 -0.000000
vn 0.9278 0.3731 0.0000
vn -0.0000 0.2865 0.9581
vn -0.9278 0.3731 -0.0000
vn 0.0000 0.2865 -0.9581
vn 0.0000 -1.0000 0.0000
vn 0.0000 1.0000 0.0000
usemtl None
s off
f 25/49/19 26/50/19 28/51/19 27/52/19
f 27/53/20 28/54/20 32/55/20 31/56/20
f 31/56/21 32/57/21 30/58/21 29/59/21
f 29/59/22 30/60/22 26/61/22 25/62/22
f 27/52/23 31/63/23 29/64/23 25/49/23
f 32/57/24 28/51/24 26/50/24 30/58/24
o Cube.007_Cube.002
v 0.008491 -0.500000 0.483017
v 0.058761 -0.375000 0.445643
v 0.008491 -0.500000 0.016983
v 0.058761 -0.375000 0.054357
v 0.241509 -0.500000 0.483017
v 0.191239 -0.375000 0.445643
v 0.241509 -0.500000 0.016983
v 0.191239 -0.375000 0.054357
vt 1.000000 0.235294
vt 1.000000 0.411765
vt 0.000000 0.411765
vt 0.000000 0.235294
vt 0.500000 0.823529
vt 0.500000 1.000000
vt 0.000000 1.000000
vt -0.000000 0.823529
vt 0.000000 0.647059
vt 1.000000 0.647059
vt 1.000000 0.823529
vt 1.000000 1.000000
vt 0.500000 1.000000
vt 0.500000 0.823529
vt 0.000000 -0.000000
vt 1.000000 -0.000000
vn -0.9278 0.3731 0.0000
vn 0.0000 0.2865 -0.9581
vn 0.9278 0.3731 0.0000
vn 0.0000 0.2865 0.9581
vn 0.0000 -1.0000 0.0000
vn 0.0000 1.0000 0.0000
usemtl None
s off
f 33/65/25 34/66/25 36/67/25 35/68/25
f 35/69/26 36/70/26 40/71/26 39/72/26
f 39/72/27 40/73/27 38/74/27 37/75/27
f 37/75/28 38/76/28 34/77/28 33/78/28
f 35/68/29 39/79/29 37/80/29 33/65/29
f 40/73/30 36/67/30 34/66/30 38/74/30
o Cube.002
v 0.241509 -0.500000 -0.483017
v 0.191239 -0.375000 -0.445643
v 0.241508 -0.500000 -0.016983
v 0.191239 -0.375000 -0.054357
v 0.008492 -0.500000 -0.483017
v 0.058761 -0.375000 -0.445643
v 0.008491 -0.500000 -0.016983
v 0.058761 -0.375000 -0.054357
vt 1.000000 0.235294
vt 1.000000 0.411765
vt 0.000000 0.411765
vt 0.000000 0.235294
vt 0.500000 0.823529
vt 0.500000 1.000000
vt 0.000000 1.000000
vt -0.000000 0.823529
vt 0.000000 0.647059
vt 1.000000 0.647059
vt 1.000000 0.823529
vt 1.000000 1.000000
vt 0.500000 1.000000
vt 0.500000 0.823529
vt 0.000000 -0.000000
vt 1.000000 -0.000000
vn 0.9278 0.3731 0.0000
vn -0.0000 0.2865 0.9581
vn -0.9278 0.3731 -0.0000
vn 0.0000 0.2865 -0.9581
vn 0.0000 -1.0000 0.0000
vn 0.0000 1.0000 0.0000
usemtl None
s off
f 41/81/31 42/82/31 44/83/31 43/84/31
f 43/85/32 44/86/32 48/87/32 47/88/32
f 47/88/33 48/89/33 46/90/33 45/91/33
f 45/91/34 46/92/34 42/93/34 41/94/34
f 43/84/35 47/95/35 45/96/35 41/81/35
f 48/89/36 44/83/36 42/82/36 46/90/36
o Cube.001_Cube.002
v 0.258491 -0.500000 -0.016983
v 0.308761 -0.375000 -0.054357
v 0.258491 -0.500000 -0.483017
v 0.308761 -0.375000 -0.445643
v 0.491509 -0.500000 -0.016983
v 0.441239 -0.375000 -0.054357
v 0.491509 -0.500000 -0.483017
v 0.441239 -0.375000 -0.445643
vt 1.000000 0.235294
vt 1.000000 0.411765
vt 0.000000 0.411765
vt 0.000000 0.235294
vt 0.500000 0.823529
vt 0.500000 1.000000
vt 0.000000 1.000000
vt -0.000000 0.823529
vt 0.000000 0.647059
vt 1.000000 0.647059
vt 1.000000 0.823529
vt 1.000000 1.000000
vt 0.500000 1.000000
vt 0.500000 0.823529
vt 0.000000 -0.000000
vt 1.000000 -0.000000
vn -0.9278 0.3731 0.0000
vn 0.0000 0.2865 -0.9581
vn 0.9278 0.3731 0.0000
vn 0.0000 0.2865 0.9581
vn 0.0000 -1.0000 0.0000
vn 0.0000 1.0000 0.0000
usemtl None
s off
f 49/97/37 50/98/37 52/99/37 51/100/37
f 51/101/38 52/102/38 56/103/38 55/104/38
f 55/104/39 56/105/39 54/106/39 53/107/39
f 53/107/40 54/108/40 50/109/40 49/110/40
f 51/100/41 55/111/41 53/112/41 49/97/41
f 56/105/42 52/99/42 50/98/42 54/106/42
