# Blender v2.79 (sub 0) OBJ File: 'ingot.blend'
# www.blender.org
mtllib ingot_big_5.mtl
o Cube.026_Cube.002
v -0.016983 0.000000 -0.466034
v -0.117522 0.250000 -0.391285
v -0.016983 0.000000 0.466034
v -0.117522 0.250000 0.391285
v -0.483017 0.000000 -0.466034
v -0.382478 0.250000 -0.391285
v -0.483017 0.000000 0.466034
v -0.382478 0.250000 0.391285
vt 1.000000 0.235294
vt 0.000000 0.411765
vt 0.000000 0.235294
vt 0.500000 1.000000
vt -0.000000 0.823529
vt 0.500000 0.823529
vt 1.000000 0.647059
vt 1.000000 0.823529
vt 1.000000 1.000000
vt 0.500000 0.823529
vt 0.000000 -0.000000
vt 0.000000 0.647059
vt 1.000000 0.411765
vt 0.000000 1.000000
vt 0.500000 1.000000
vt 1.000000 -0.000000
vn 0.9278 0.3731 0.0000
vn -0.0000 0.2865 0.9581
vn -0.9278 0.3731 -0.0000
vn 0.0000 0.2865 -0.9581
vn 0.0000 -1.0000 0.0000
vn 0.0000 1.0000 0.0000
usemtl None
s off
f 1/1/1 4/2/1 3/3/1
f 4/4/2 7/5/2 3/6/2
f 7/5/3 6/7/3 5/8/3
f 6/9/4 1/10/4 5/8/4
f 7/11/5 1/1/5 3/3/5
f 4/2/6 6/7/6 8/12/6
f 1/1/1 2/13/1 4/2/1
f 4/4/2 8/14/2 7/5/2
f 7/5/3 8/12/3 6/7/3
f 6/9/4 2/15/4 1/10/4
f 7/11/5 5/16/5 1/1/5
f 4/2/6 2/13/6 6/7/6
o Cube.012_Cube.002
v 0.466034 -0.250000 0.483017
v 0.391285 0.000000 0.382478
v -0.466034 -0.250000 0.483017
v -0.391285 0.000000 0.382478
v 0.466034 -0.250000 0.016983
v 0.391285 0.000000 0.117522
v -0.466034 -0.250000 0.016983
v -0.391285 0.000000 0.117522
vt 1.000000 0.235294
vt 0.000000 0.411765
vt 0.000000 0.235294
vt 0.500000 1.000000
vt -0.000000 0.823529
vt 0.500000 0.823529
vt 1.000000 0.647059
vt 1.000000 0.823529
vt 1.000000 1.000000
vt 0.500000 0.823529
vt 0.000000 -0.000000
vt 0.000000 0.647059
vt 1.000000 0.411765
vt 0.000000 1.000000
vt 0.500000 1.000000
vt 1.000000 -0.000000
vn -0.0000 0.3731 0.9278
vn -0.9581 0.2865 -0.0000
vn 0.0000 0.3731 -0.9278
vn 0.9581 0.2865 0.0000
vn 0.0000 -1.0000 0.0000
vn 0.0000 1.0000 0.0000
usemtl None
s off
f 9/17/7 12/18/7 11/19/7
f 12/20/8 15/21/8 11/22/8
f 15/21/9 14/23/9 13/24/9
f 14/25/10 9/26/10 13/24/10
f 15/27/11 9/17/11 11/19/11
f 12/18/12 14/23/12 16/28/12
f 9/17/7 10/29/7 12/18/7
f 12/20/8 16/30/8 15/21/8
f 15/21/9 16/28/9 14/23/9
f 14/25/10 10/31/10 9/26/10
f 15/27/11 13/32/11 9/17/11
f 12/18/12 10/29/12 14/23/12
o Cube.011_Cube.002
v 0.466034 -0.250000 -0.016983
v 0.391285 0.000000 -0.117522
v -0.466034 -0.250000 -0.016983
v -0.391285 0.000000 -0.117522
v 0.466034 -0.250000 -0.483017
v 0.391285 0.000000 -0.382478
v -0.466034 -0.250000 -0.483017
v -0.391285 0.000000 -0.382478
vt 1.000000 0.235294
vt 0.000000 0.411765
vt 0.000000 0.235294
vt 0.500000 1.000000
vt -0.000000 0.823529
vt 0.500000 0.823529
vt 1.000000 0.647059
vt 1.000000 0.823529
vt 1.000000 1.000000
vt 0.500000 0.823529
vt 0.000000 -0.000000
vt 0.000000 0.647059
vt 1.000000 0.411765
vt 0.000000 1.000000
vt 0.500000 1.000000
vt 1.000000 -0.000000
vn -0.0000 0.3731 0.9278
vn -0.9581 0.2865 -0.0000
vn 0.0000 0.3731 -0.9278
vn 0.9581 0.2865 0.0000
vn 0.0000 -1.0000 0.0000
vn 0.0000 1.0000 0.0000
usemtl None
s off
f 17/33/13 20/34/13 19/35/13
f 20/36/14 23/37/14 19/38/14
f 23/37/15 22/39/15 21/40/15
f 22/41/16 17/42/16 21/40/16
f 23/43/17 17/33/17 19/35/17
f 20/34/18 22/39/18 24/44/18
f 17/33/13 18/45/13 20/34/13
f 20/36/14 24/46/14 23/37/14
f 23/37/15 24/44/15 22/39/15
f 22/41/16 18/47/16 17/42/16
f 23/43/17 21/48/17 17/33/17
f 20/34/18 18/45/18 22/39/18
o Cube.006_Cube.002
v 0.483017 -0.500000 -0.466034
v 0.382478 -0.250000 -0.391285
v 0.483017 -0.500000 0.466034
v 0.382478 -0.250000 0.391285
v 0.016983 -0.500000 -0.466034
v 0.117522 -0.250000 -0.391285
v 0.016983 -0.500000 0.466034
v 0.117522 -0.250000 0.391285
vt 1.000000 0.235294
vt 0.000000 0.411765
vt 0.000000 0.235294
vt 0.500000 1.000000
vt -0.000000 0.823529
vt 0.500000 0.823529
vt 1.000000 0.647059
vt 1.000000 0.823529
vt 1.000000 1.000000
vt 0.500000 0.823529
vt 0.000000 -0.000000
vt 0.000000 0.647059
vt 1.000000 0.411765
vt 0.000000 1.000000
vt 0.500000 1.000000
vt 1.000000 -0.000000
vn 0.9278 0.3731 0.0000
vn -0.0000 0.2865 0.9581
vn -0.9278 0.3731 -0.0000
vn 0.0000 0.2865 -0.9581
vn 0.0000 -1.0000 0.0000
vn 0.0000 1.0000 0.0000
usemtl None
s off
f 25/49/19 28/50/19 27/51/19
f 28/52/20 31/53/20 27/54/20
f 31/53/21 30/55/21 29/56/21
f 30/57/22 25/58/22 29/56/22
f 31/59/23 25/49/23 27/51/23
f 28/50/24 30/55/24 32/60/24
f 25/49/19 26/61/19 28/50/19
f 28/52/20 32/62/20 31/53/20
f 31/53/21 32/60/21 30/55/21
f 30/57/22 26/63/22 25/58/22
f 31/59/23 29/64/23 25/49/23
f 28/50/24 26/61/24 30/55/24
o Cube.005_Cube.002
v -0.483017 -0.500000 0.466034
v -0.382478 -0.250000 0.391285
v -0.483017 -0.500000 -0.466034
v -0.382478 -0.250000 -0.391285
v -0.016983 -0.500000 0.466034
v -0.117522 -0.250000 0.391285
v -0.016983 -0.500000 -0.466034
v -0.117522 -0.250000 -0.391285
vt 1.000000 0.235294
vt 0.000000 0.411765
vt 0.000000 0.235294
vt 0.500000 1.000000
vt -0.000000 0.823529
vt 0.500000 0.823529
vt 1.000000 0.647059
vt 1.000000 0.823529
vt 1.000000 1.000000
vt 0.500000 0.823529
vt 0.000000 -0.000000
vt 0.000000 0.647059
vt 1.000000 0.411765
vt 0.000000 1.000000
vt 0.500000 1.000000
vt 1.000000 -0.000000
vn -0.9278 0.3731 -0.0000
vn 0.0000 0.2865 -0.9581
vn 0.9278 0.3731 0.0000
vn -0.0000 0.2865 0.9581
vn 0.0000 -1.0000 0.0000
vn 0.0000 1.0000 0.0000
usemtl None
s off
f 33/65/25 36/66/25 35/67/25
f 36/68/26 39/69/26 35/70/26
f 39/69/27 38/71/27 37/72/27
f 38/73/28 33/74/28 37/72/28
f 39/75/29 33/65/29 35/67/29
f 36/66/30 38/71/30 40/76/30
f 33/65/25 34/77/25 36/66/25
f 36/68/26 40/78/26 39/69/26
f 39/69/27 40/76/27 38/71/27
f 38/73/28 34/79/28 33/74/28
f 39/75/29 37/80/29 33/65/29
f 36/66/30 34/77/30 38/71/30
