# Blender v2.79 (sub 0) OBJ File: 'vintage_streetlamp.blend'
# www.blender.org
mtllib morelights_vintage_streetlamp.mtl
o Plane
v -0.312500 0.075000 0.312500
v 0.312500 0.075000 0.312500
v -0.312500 0.075000 -0.312500
v 0.312500 0.075000 -0.312500
v 0.000000 0.325000 0.000000
vn 0.6247 -0.7809 0.0000
vn 0.0000 -0.7809 -0.6247
vn -0.6247 -0.7809 0.0000
vn 0.0000 -0.7809 0.6247
usemtl None
s off
f 1//1 3//1 5//1
f 2//2 1//2 5//2
f 4//3 2//3 5//3
f 3//4 4//4 5//4
o Cube.001
v -0.187500 -0.500000 0.187500
v -0.250000 0.125000 0.250000
v -0.187500 -0.500000 -0.187500
v -0.250000 0.125000 -0.250000
v 0.187500 -0.500000 0.187500
v 0.250000 0.125000 0.250000
v 0.187500 -0.500000 -0.187500
v 0.250000 0.125000 -0.250000
vn -0.9950 -0.0995 0.0000
vn 0.0000 -0.0995 -0.9950
vn 0.9950 -0.0995 0.0000
vn 0.0000 -0.0995 0.9950
vn 0.0000 -1.0000 0.0000
vn 0.0000 1.0000 0.0000
usemtl None
s off
f 6//5 7//5 9//5 8//5
f 8//6 9//6 13//6 12//6
f 12//7 13//7 11//7 10//7
f 10//8 11//8 7//8 6//8
f 8//9 12//9 10//9 6//9
f 13//10 9//10 7//10 11//10
