# Blender v2.79 (sub 0) OBJ File: 'glider.blend'
# www.blender.org
o wood_Plane.001
v 0.572761 0.605751 0.566543
v 0.572761 0.605751 -0.566543
v 0.572761 0.745661 0.566543
v 1.132401 0.395886 -0.566543
v 0.572761 0.745661 -0.566543
v 1.132401 0.395886 0.566543
v 0.000000 0.605751 0.566543
v -0.572761 0.605751 0.566543
v 0.000000 0.605751 -0.566543
v -0.572761 0.605751 -0.566543
v -0.572761 0.745661 0.566543
v -1.132401 0.395886 -0.566543
v -0.572761 0.745661 -0.566543
v -1.132401 0.395886 0.566543
v 0.000000 0.745661 -0.566543
v 0.000000 0.745661 0.566543
vt 0.482051 -0.081189
vt 0.482051 1.089032
vt 0.961113 1.089032
vt 0.961113 -0.081189
vt 1.461031 1.089032
vt 1.461031 -0.081189
vt 1.565178 -0.071488
vt 1.013186 -0.071488
vt 1.013186 1.098732
vt 1.565178 1.098732
vt 0.534125 -0.071488
vt 0.534125 1.098732
vt -0.343283 0.514972
vt 0.063942 0.769487
vt 0.063942 0.667681
vt -0.343283 0.514179
vt 0.063941 0.361470
vt 0.063941 0.259664
vt 0.480711 0.361470
vt 0.480711 0.259664
vt 0.480713 0.667681
vt 0.480713 0.769487
vt 0.002990 -0.081188
vt 0.002990 1.089032
vt -0.496929 -0.081188
vt -0.496929 1.089032
vt -0.496929 -0.071488
vt -0.496929 1.098732
vt 0.055063 1.098732
vt 0.055063 -0.071488
vt 1.304706 0.514972
vt 0.897483 0.667681
vt 0.897483 0.769487
vt 1.304706 0.514179
vt 0.897482 0.259664
vt 0.897482 0.361470
vn 0.0000 -1.0000 0.0000
vn -0.3511 -0.9363 0.0000
vn 0.5300 0.8480 0.0000
vn 0.0000 1.0000 0.0000
vn 0.0000 0.0000 1.0000
vn 0.0000 0.0000 -1.0000
vn 0.3511 -0.9363 0.0000
vn -0.5300 0.8480 0.0000
g wood_Plane.001_0001
s off
f 7/1/1 9/2/1 2/3/1 1/4/1
f 2/3/2 4/5/2 6/6/2 1/4/2
f 4/7/3 5/8/3 3/9/3 6/10/3
f 3/9/4 5/8/4 15/11/4 16/12/4
f 6/13/5 3/14/5 1/15/5
f 4/16/6 2/17/6 5/18/6
f 9/19/6 15/20/6 5/18/6 2/17/6
f 7/21/5 1/15/5 3/14/5 16/22/5
f 7/1/1 8/23/1 10/24/1 9/2/1
f 10/24/7 8/23/7 14/25/7 12/26/7
f 12/27/8 14/28/8 11/29/8 13/30/8
f 11/29/4 16/12/4 15/11/4 13/30/4
f 14/31/5 8/32/5 11/33/5
f 12/34/6 13/35/6 10/36/6
f 9/19/6 10/36/6 13/35/6 15/20/6
f 7/21/5 16/22/5 11/33/5 8/32/5
o stick_Plane
v 0.345489 -0.242835 0.171751
v 0.276391 -0.171751 0.171751
v 0.345489 -0.242835 0.242835
v 0.276391 -0.171751 0.242835
v 0.725527 0.552782 0.242836
v 0.829174 0.552782 0.242836
v 0.725527 0.552782 0.171751
v 0.829174 0.552782 0.171751
v 0.000000 -0.171751 0.242835
v 0.000000 -0.242835 0.242835
v 0.000000 -0.171751 0.171751
v 0.000000 -0.242835 0.171751
v -0.345489 -0.242835 0.171751
v -0.276391 -0.171751 0.171751
v -0.345489 -0.242835 0.242835
v -0.276391 -0.171751 0.242835
v -0.725527 0.552782 0.242836
v -0.829174 0.552782 0.242836
v -0.725527 0.552782 0.171751
v -0.829174 0.552782 0.171751
vt 0.500002 0.375000
vt 0.500000 0.250000
vt 0.750000 0.250000
vt 0.875000 0.375000
vt 0.500000 0.500000
vt 0.875000 0.500000
vt 0.500000 0.125000
vt 0.500000 0.000000
vt 0.875000 0.000000
vt 0.750000 0.125000
vt 1.600000 0.000000
vt 1.500000 0.125000
vt 1.500000 0.250000
vt 1.600000 0.375000
vt 1.600000 0.500000
vt 0.125000 0.375000
vt 0.250000 0.250000
vt 0.125000 0.500000
vt 0.250000 0.125000
vt 0.125000 0.000000
vt -0.500000 0.125000
vt -0.600000 0.000000
vt -0.500000 0.250000
vt -0.600000 0.375000
vt -0.600000 0.500000
vn 0.0000 0.0000 -1.0000
vn 0.0000 -1.0000 -0.0000
vn 0.0000 -0.0000 1.0000
vn 0.0000 1.0000 0.0000
vn -0.8499 0.5269 0.0000
vn 0.8545 -0.5195 -0.0000
vn 0.8499 0.5269 0.0000
vn -0.8545 -0.5195 -0.0000
g stick_Plane_0002
s off
f 28/37/9 27/38/9 18/39/9 17/40/9
f 26/41/10 28/37/10 17/40/10 19/42/10
f 25/43/11 26/44/11 19/45/11 20/46/11
f 27/38/12 25/43/12 20/46/12 18/39/12
f 20/46/11 19/45/11 22/47/11 21/48/11
f 18/39/13 20/46/13 21/48/13 23/49/13
f 17/40/9 18/39/9 23/49/9 24/50/9
f 19/42/14 17/40/14 24/50/14 22/51/14
f 28/37/9 29/52/9 30/53/9 27/38/9
f 26/41/10 31/54/10 29/52/10 28/37/10
f 25/43/11 32/55/11 31/56/11 26/44/11
f 27/38/12 30/53/12 32/55/12 25/43/12
f 32/55/11 33/57/11 34/58/11 31/56/11
f 30/53/15 35/59/15 33/57/15 32/55/15
f 29/52/9 36/60/9 35/59/9 30/53/9
f 31/54/16 34/61/16 36/60/16 29/52/16
