# Blender v2.79 (sub 0) OBJ File: 'ingot.blend'
# www.blender.org
mtllib ingot_big_1.mtl
o Cube.005_Cube.002
v -0.483017 -0.500000 0.466034
v -0.382478 -0.250000 0.391285
v -0.483017 -0.500000 -0.466034
v -0.382478 -0.250000 -0.391285
v -0.016983 -0.500000 0.466034
v -0.117522 -0.250000 0.391285
v -0.016983 -0.500000 -0.466034
v -0.117522 -0.250000 -0.391285
vt 1.000000 0.235294
vt 0.000000 0.411765
vt 0.000000 0.235294
vt 0.500000 1.000000
vt -0.000000 0.823529
vt 0.500000 0.823529
vt 1.000000 0.647059
vt 1.000000 0.823529
vt 1.000000 1.000000
vt 0.500000 0.823529
vt 0.000000 -0.000000
vt 0.000000 0.647059
vt 1.000000 0.411765
vt 0.000000 1.000000
vt 0.500000 1.000000
vt 1.000000 -0.000000
vn -0.9278 0.3731 -0.0000
vn 0.0000 0.2865 -0.9581
vn 0.9278 0.3731 0.0000
vn -0.0000 0.2865 0.9581
vn 0.0000 -1.0000 0.0000
vn 0.0000 1.0000 0.0000
usemtl None
s off
f 1/1/1 4/2/1 3/3/1
f 4/4/2 7/5/2 3/6/2
f 7/5/3 6/7/3 5/8/3
f 6/9/4 1/10/4 5/8/4
f 7/11/5 1/1/5 3/3/5
f 4/2/6 6/7/6 8/12/6
f 1/1/1 2/13/1 4/2/1
f 4/4/2 8/14/2 7/5/2
f 7/5/3 8/12/3 6/7/3
f 6/9/4 2/15/4 1/10/4
f 7/11/5 5/16/5 1/1/5
f 4/2/6 2/13/6 6/7/6
