# Blender v2.79 (sub 0) OBJ File: 'ingot_big.blend'
# www.blender.org
mtllib ingot_16.mtl
o Cube.016_Cube.002
v 0.016983 -0.375000 0.258491
v 0.054357 -0.250000 0.308761
v 0.483017 -0.375000 0.258491
v 0.445643 -0.250000 0.308761
v 0.016983 -0.375000 0.491509
v 0.054357 -0.250000 0.441239
v 0.483017 -0.375000 0.491509
v 0.445643 -0.250000 0.441239
vt 1.000000 0.235294
vt 1.000000 0.411765
vt 0.000000 0.411765
vt 0.000000 0.235294
vt 0.500000 0.823529
vt 0.500000 1.000000
vt 0.000000 1.000000
vt -0.000000 0.823529
vt 0.000000 0.647059
vt 1.000000 0.647059
vt 1.000000 0.823529
vt 1.000000 1.000000
vt 0.500000 1.000000
vt 0.500000 0.823529
vt 0.000000 -0.000000
vt 1.000000 -0.000000
vn 0.0000 0.3731 -0.9278
vn 0.9581 0.2865 0.0000
vn 0.0000 0.3731 0.9278
vn -0.9581 0.2865 0.0000
vn 0.0000 -1.0000 0.0000
vn 0.0000 1.0000 0.0000
usemtl None
s off
f 1/1/1 2/2/1 4/3/1 3/4/1
f 3/5/2 4/6/2 8/7/2 7/8/2
f 7/8/3 8/9/3 6/10/3 5/11/3
f 5/11/4 6/12/4 2/13/4 1/14/4
f 3/4/5 7/15/5 5/16/5 1/1/5
f 8/9/6 4/3/6 2/2/6 6/10/6
o Cube.015_Cube.002
v 0.016983 -0.375000 0.008491
v 0.054358 -0.250000 0.058761
v 0.483017 -0.375000 0.008492
v 0.445643 -0.250000 0.058761
v 0.016983 -0.375000 0.241508
v 0.054357 -0.250000 0.191239
v 0.483017 -0.375000 0.241509
v 0.445642 -0.250000 0.191239
vt 1.000000 0.235294
vt 1.000000 0.411765
vt 0.000000 0.411765
vt 0.000000 0.235294
vt 0.500000 0.823529
vt 0.500000 1.000000
vt 0.000000 1.000000
vt -0.000000 0.823529
vt 0.000000 0.647059
vt 1.000000 0.647059
vt 1.000000 0.823529
vt 1.000000 1.000000
vt 0.500000 1.000000
vt 0.500000 0.823529
vt 0.000000 -0.000000
vt 1.000000 -0.000000
vn 0.0000 0.3731 -0.9278
vn 0.9581 0.2865 0.0000
vn -0.0000 0.3731 0.9278
vn -0.9581 0.2865 -0.0000
vn 0.0000 -1.0000 0.0000
vn 0.0000 1.0000 0.0000
usemtl None
s off
f 9/17/7 10/18/7 12/19/7 11/20/7
f 11/21/8 12/22/8 16/23/8 15/24/8
f 15/24/9 16/25/9 14/26/9 13/27/9
f 13/27/10 14/28/10 10/29/10 9/30/10
f 11/20/11 15/31/11 13/32/11 9/17/11
f 16/25/12 12/19/12 10/18/12 14/26/12
o Cube.014_Cube.002
v -0.483017 -0.375000 0.008491
v -0.445643 -0.250000 0.058761
v -0.016983 -0.375000 0.008491
v -0.054357 -0.250000 0.058761
v -0.483017 -0.375000 0.241509
v -0.445643 -0.250000 0.191239
v -0.016983 -0.375000 0.241509
v -0.054357 -0.250000 0.191239
vt 1.000000 0.235294
vt 1.000000 0.411765
vt 0.000000 0.411765
vt 0.000000 0.235294
vt 0.500000 0.823529
vt 0.500000 1.000000
vt 0.000000 1.000000
vt -0.000000 0.823529
vt 0.000000 0.647059
vt 1.000000 0.647059
vt 1.000000 0.823529
vt 1.000000 1.000000
vt 0.500000 1.000000
vt 0.500000 0.823529
vt 0.000000 -0.000000
vt 1.000000 -0.000000
vn 0.0000 0.3731 -0.9278
vn 0.9581 0.2865 0.0000
vn -0.0000 0.3731 0.9278
vn -0.9581 0.2865 0.0000
vn 0.0000 -1.0000 0.0000
vn 0.0000 1.0000 0.0000
usemtl None
s off
f 17/33/13 18/34/13 20/35/13 19/36/13
f 19/37/14 20/38/14 24/39/14 23/40/14
f 23/40/15 24/41/15 22/42/15 21/43/15
f 21/43/16 22/44/16 18/45/16 17/46/16
f 19/36/17 23/47/17 21/48/17 17/33/17
f 24/41/18 20/35/18 18/34/18 22/42/18
o Cube.013_Cube.002
v -0.016983 -0.375000 0.491509
v -0.054357 -0.250000 0.441239
v -0.483017 -0.375000 0.491509
v -0.445643 -0.250000 0.441239
v -0.016983 -0.375000 0.258491
v -0.054357 -0.250000 0.308761
v -0.483017 -0.375000 0.258491
v -0.445643 -0.250000 0.308761
vt 1.000000 0.235294
vt 1.000000 0.411765
vt 0.000000 0.411765
vt 0.000000 0.235294
vt 0.500000 0.823529
vt 0.500000 1.000000
vt 0.000000 1.000000
vt -0.000000 0.823529
vt 0.000000 0.647059
vt 1.000000 0.647059
vt 1.000000 0.823529
vt 1.000000 1.000000
vt 0.500000 1.000000
vt 0.500000 0.823529
vt 0.000000 -0.000000
vt 1.000000 -0.000000
vn 0.0000 0.3731 0.9278
vn -0.9581 0.2865 0.0000
vn 0.0000 0.3731 -0.9278
vn 0.9581 0.2865 0.0000
vn 0.0000 -1.0000 0.0000
vn 0.0000 1.0000 0.0000
usemtl None
s off
f 25/49/19 26/50/19 28/51/19 27/52/19
f 27/53/20 28/54/20 32/55/20 31/56/20
f 31/56/21 32/57/21 30/58/21 29/59/21
f 29/59/22 30/60/22 26/61/22 25/62/22
f 27/52/23 31/63/23 29/64/23 25/49/23
f 32/57/24 28/51/24 26/50/24 30/58/24
o Cube.012_Cube.002
v -0.016983 -0.375000 -0.008491
v -0.054357 -0.250000 -0.058761
v -0.483017 -0.375000 -0.008492
v -0.445643 -0.250000 -0.058761
v -0.016983 -0.375000 -0.241508
v -0.054357 -0.250000 -0.191239
v -0.483017 -0.375000 -0.241509
v -0.445643 -0.250000 -0.191239
vt 1.000000 0.235294
vt 1.000000 0.411765
vt 0.000000 0.411765
vt 0.000000 0.235294
vt 0.500000 0.823529
vt 0.500000 1.000000
vt 0.000000 1.000000
vt -0.000000 0.823529
vt 0.000000 0.647059
vt 1.000000 0.647059
vt 1.000000 0.823529
vt 1.000000 1.000000
vt 0.500000 1.000000
vt 0.500000 0.823529
vt 0.000000 -0.000000
vt 1.000000 -0.000000
vn -0.0000 0.3731 0.9278
vn -0.9581 0.2865 -0.0000
vn 0.0000 0.3731 -0.9278
vn 0.9581 0.2865 0.0000
vn 0.0000 -1.0000 0.0000
vn 0.0000 1.0000 0.0000
usemtl None
s off
f 33/65/25 34/66/25 36/67/25 35/68/25
f 35/69/26 36/70/26 40/71/26 39/72/26
f 39/72/27 40/73/27 38/74/27 37/75/27
f 37/75/28 38/76/28 34/77/28 33/78/28
f 35/68/29 39/79/29 37/80/29 33/65/29
f 40/73/30 36/67/30 34/66/30 38/74/30
o Cube.011_Cube.002
v -0.016983 -0.375000 -0.258491
v -0.054357 -0.250000 -0.308761
v -0.483017 -0.375000 -0.258492
v -0.445643 -0.250000 -0.308761
v -0.016983 -0.375000 -0.491508
v -0.054357 -0.250000 -0.441239
v -0.483017 -0.375000 -0.491509
v -0.445643 -0.250000 -0.441239
vt 1.000000 0.235294
vt 1.000000 0.411765
vt 0.000000 0.411765
vt 0.000000 0.235294
vt 0.500000 0.823529
vt 0.500000 1.000000
vt 0.000000 1.000000
vt -0.000000 0.823529
vt 0.000000 0.647059
vt 1.000000 0.647059
vt 1.000000 0.823529
vt 1.000000 1.000000
vt 0.500000 1.000000
vt 0.500000 0.823529
vt 0.000000 -0.000000
vt 1.000000 -0.000000
vn -0.0000 0.3731 0.9278
vn -0.9581 0.2865 -0.0000
vn 0.0000 0.3731 -0.9278
vn 0.9581 0.2865 0.0000
vn 0.0000 -1.0000 0.0000
vn 0.0000 1.0000 0.0000
usemtl None
s off
f 41/81/31 42/82/31 44/83/31 43/84/31
f 43/85/32 44/86/32 48/87/32 47/88/32
f 47/88/33 48/89/33 46/90/33 45/91/33
f 45/91/34 46/92/34 42/93/34 41/94/34
f 43/84/35 47/95/35 45/96/35 41/81/35
f 48/89/36 44/83/36 42/82/36 46/90/36
o Cube.010_Cube.002
v 0.483017 -0.375000 -0.258491
v 0.445643 -0.250000 -0.308761
v 0.016983 -0.375000 -0.258492
v 0.054357 -0.250000 -0.308761
v 0.483017 -0.375000 -0.491508
v 0.445643 -0.250000 -0.441239
v 0.016983 -0.375000 -0.491509
v 0.054357 -0.250000 -0.441239
vt 1.000000 0.235294
vt 1.000000 0.411765
vt 0.000000 0.411765
vt 0.000000 0.235294
vt 0.500000 0.823529
vt 0.500000 1.000000
vt 0.000000 1.000000
vt -0.000000 0.823529
vt 0.000000 0.647059
vt 1.000000 0.647059
vt 1.000000 0.823529
vt 1.000000 1.000000
vt 0.500000 1.000000
vt 0.500000 0.823529
vt 0.000000 -0.000000
vt 1.000000 -0.000000
vn -0.0000 0.3731 0.9278
vn -0.9581 0.2865 -0.0000
vn 0.0000 0.3731 -0.9278
vn 0.9581 0.2865 0.0000
vn 0.0000 -1.0000 0.0000
vn 0.0000 1.0000 0.0000
usemtl None
s off
f 49/97/37 50/98/37 52/99/37 51/100/37
f 51/101/38 52/102/38 56/103/38 55/104/38
f 55/104/39 56/105/39 54/106/39 53/107/39
f 53/107/40 54/108/40 50/109/40 49/110/40
f 51/100/41 55/111/41 53/112/41 49/97/41
f 56/105/42 52/99/42 50/98/42 54/106/42
o Cube.009_Cube.002
v 0.483017 -0.375000 -0.008491
v 0.445643 -0.250000 -0.058761
v 0.016983 -0.375000 -0.008491
v 0.054357 -0.250000 -0.058761
v 0.483017 -0.375000 -0.241509
v 0.445643 -0.250000 -0.191239
v 0.016983 -0.375000 -0.241509
v 0.054357 -0.250000 -0.191239
vt 1.000000 0.235294
vt 1.000000 0.411765
vt 0.000000 0.411765
vt 0.000000 0.235294
vt 0.500000 0.823529
vt 0.500000 1.000000
vt 0.000000 1.000000
vt -0.000000 0.823529
vt 0.000000 0.647059
vt 1.000000 0.647059
vt 1.000000 0.823529
vt 1.000000 1.000000
vt 0.500000 1.000000
vt 0.500000 0.823529
vt 0.000000 -0.000000
vt 1.000000 -0.000000
vn 0.0000 0.3731 0.9278
vn -0.9581 0.2865 0.0000
vn 0.0000 0.3731 -0.9278
vn 0.9581 0.2865 0.0000
vn 0.0000 -1.0000 0.0000
vn 0.0000 1.0000 0.0000
usemtl None
s off
f 57/113/43 58/114/43 60/115/43 59/116/43
f 59/117/44 60/118/44 64/119/44 63/120/44
f 63/120/45 64/121/45 62/122/45 61/123/45
f 61/123/46 62/124/46 58/125/46 57/126/46
f 59/116/47 63/127/47 61/128/47 57/113/47
f 64/121/48 60/115/48 58/114/48 62/122/48
o Cube.006_Cube.002
v -0.241509 -0.500000 -0.016983
v -0.191239 -0.375000 -0.054357
v -0.241509 -0.500000 -0.483017
v -0.191239 -0.375000 -0.445643
v -0.008491 -0.500000 -0.016983
v -0.058761 -0.375000 -0.054357
v -0.008491 -0.500000 -0.483017
v -0.058761 -0.375000 -0.445643
vt 1.000000 0.235294
vt 1.000000 0.411765
vt 0.000000 0.411765
vt 0.000000 0.235294
vt 0.500000 0.823529
vt 0.500000 1.000000
vt 0.000000 1.000000
vt -0.000000 0.823529
vt 0.000000 0.647059
vt 1.000000 0.647059
vt 1.000000 0.823529
vt 1.000000 1.000000
vt 0.500000 1.000000
vt 0.500000 0.823529
vt 0.000000 -0.000000
vt 1.000000 -0.000000
vn -0.9278 0.3731 0.0000
vn 0.0000 0.2865 -0.9581
vn 0.9278 0.3731 0.0000
vn 0.0000 0.2865 0.9581
vn 0.0000 -1.0000 0.0000
vn 0.0000 1.0000 0.0000
usemtl None
s off
f 65/129/49 66/130/49 68/131/49 67/132/49
f 67/133/50 68/134/50 72/135/50 71/136/50
f 71/136/51 72/137/51 70/138/51 69/139/51
f 69/139/52 70/140/52 66/141/52 65/142/52
f 67/132/53 71/143/53 69/144/53 65/129/53
f 72/137/54 68/131/54 66/130/54 70/138/54
o Cube.005_Cube.002
v -0.491509 -0.500000 -0.016983
v -0.441239 -0.375000 -0.054357
v -0.491508 -0.500000 -0.483017
v -0.441239 -0.375000 -0.445643
v -0.258492 -0.500000 -0.016983
v -0.308761 -0.375000 -0.054357
v -0.258491 -0.500000 -0.483017
v -0.308761 -0.375000 -0.445643
vt 1.000000 0.235294
vt 1.000000 0.411765
vt 0.000000 0.411765
vt 0.000000 0.235294
vt 0.500000 0.823529
vt 0.500000 1.000000
vt 0.000000 1.000000
vt -0.000000 0.823529
vt 0.000000 0.647059
vt 1.000000 0.647059
vt 1.000000 0.823529
vt 1.000000 1.000000
vt 0.500000 1.000000
vt 0.500000 0.823529
vt 0.000000 -0.000000
vt 1.000000 -0.000000
vn -0.9278 0.3731 -0.0000
vn 0.0000 0.2865 -0.9581
vn 0.9278 0.3731 0.0000
vn -0.0000 0.2865 0.9581
vn 0.0000 -1.0000 0.0000
vn 0.0000 1.0000 0.0000
usemtl None
s off
f 73/145/55 74/146/55 76/147/55 75/148/55
f 75/149/56 76/150/56 80/151/56 79/152/56
f 79/152/57 80/153/57 78/154/57 77/155/57
f 77/155/58 78/156/58 74/157/58 73/158/58
f 75/148/59 79/159/59 77/160/59 73/145/59
f 80/153/60 76/147/60 74/146/60 78/154/60
o Cube.004_Cube.002
v -0.258491 -0.500000 0.016983
v -0.308761 -0.375000 0.054357
v -0.258492 -0.500000 0.483017
v -0.308761 -0.375000 0.445643
v -0.491508 -0.500000 0.016983
v -0.441239 -0.375000 0.054357
v -0.491509 -0.500000 0.483017
v -0.441239 -0.375000 0.445643
vt 1.000000 0.235294
vt 1.000000 0.411765
vt 0.000000 0.411765
vt 0.000000 0.235294
vt 0.500000 0.823529
vt 0.500000 1.000000
vt 0.000000 1.000000
vt -0.000000 0.823529
vt 0.000000 0.647059
vt 1.000000 0.647059
vt 1.000000 0.823529
vt 1.000000 1.000000
vt 0.500000 1.000000
vt 0.500000 0.823529
vt 0.000000 -0.000000
vt 1.000000 -0.000000
vn 0.9278 0.3731 0.0000
vn -0.0000 0.2865 0.9581
vn -0.9278 0.3731 -0.0000
vn 0.0000 0.2865 -0.9581
vn 0.0000 -1.0000 0.0000
vn 0.0000 1.0000 0.0000
usemtl None
s off
f 81/161/61 82/162/61 84/163/61 83/164/61
f 83/165/62 84/166/62 88/167/62 87/168/62
f 87/168/63 88/169/63 86/170/63 85/171/63
f 85/171/64 86/172/64 82/173/64 81/174/64
f 83/164/65 87/175/65 85/176/65 81/161/65
f 88/169/66 84/163/66 82/162/66 86/170/66
o Cube.003_Cube.002
v -0.008491 -0.500000 0.016983
v -0.058761 -0.375000 0.054357
v -0.008492 -0.500000 0.483017
v -0.058761 -0.375000 0.445643
v -0.241508 -0.500000 0.016983
v -0.191239 -0.375000 0.054357
v -0.241509 -0.500000 0.483017
v -0.191239 -0.375000 0.445643
vt 1.000000 0.235294
vt 1.000000 0.411765
vt 0.000000 0.411765
vt 0.000000 0.235294
vt 0.500000 0.823529
vt 0.500000 1.000000
vt 0.000000 1.000000
vt -0.000000 0.823529
vt 0.000000 0.647059
vt 1.000000 0.647059
vt 1.000000 0.823529
vt 1.000000 1.000000
vt 0.500000 1.000000
vt 0.500000 0.823529
vt 0.000000 -0.000000
vt 1.000000 -0.000000
vn 0.9278 0.3731 0.0000
vn -0.0000 0.2865 0.9581
vn -0.9278 0.3731 -0.0000
vn 0.0000 0.2865 -0.9581
vn 0.0000 -1.0000 0.0000
vn 0.0000 1.0000 0.0000
usemtl None
s off
f 89/177/67 90/178/67 92/179/67 91/180/67
f 91/181/68 92/182/68 96/183/68 95/184/68
f 95/184/69 96/185/69 94/186/69 93/187/69
f 93/187/70 94/188/70 90/189/70 89/190/70
f 91/180/71 95/191/71 93/192/71 89/177/71
f 96/185/72 92/179/72 90/178/72 94/186/72
o Cube.008_Cube.002
v 0.258491 -0.500000 0.483017
v 0.308761 -0.375000 0.445643
v 0.258491 -0.500000 0.016983
v 0.308761 -0.375000 0.054357
v 0.491509 -0.500000 0.483017
v 0.441239 -0.375000 0.445643
v 0.491509 -0.500000 0.016983
v 0.441239 -0.375000 0.054357
vt 1.000000 0.235294
vt 1.000000 0.411765
vt 0.000000 0.411765
vt 0.000000 0.235294
vt 0.500000 0.823529
vt 0.500000 1.000000
vt 0.000000 1.000000
vt -0.000000 0.823529
vt 0.000000 0.647059
vt 1.000000 0.647059
vt 1.000000 0.823529
vt 1.000000 1.000000
vt 0.500000 1.000000
vt 0.500000 0.823529
vt 0.000000 -0.000000
vt 1.000000 -0.000000
vn -0.9278 0.3731 0.0000
vn 0.0000 0.2865 -0.9581
vn 0.9278 0.3731 0.0000
vn 0.0000 0.2865 0.9581
vn 0.0000 -1.0000 0.0000
vn 0.0000 1.0000 0.0000
usemtl None
s off
f 97/193/73 98/194/73 100/195/73 99/196/73
f 99/197/74 100/198/74 104/199/74 103/200/74
f 103/200/75 104/201/75 102/202/75 101/203/75
f 101/203/76 102/204/76 98/205/76 97/206/76
f 99/196/77 103/207/77 101/208/77 97/193/77
f 104/201/78 100/195/78 98/194/78 102/202/78
o Cube.007_Cube.002
v 0.008491 -0.500000 0.483017
v 0.058761 -0.375000 0.445643
v 0.008491 -0.500000 0.016983
v 0.058761 -0.375000 0.054357
v 0.241509 -0.500000 0.483017
v 0.191239 -0.375000 0.445643
v 0.241509 -0.500000 0.016983
v 0.191239 -0.375000 0.054357
vt 1.000000 0.235294
vt 1.000000 0.411765
vt 0.000000 0.411765
vt 0.000000 0.235294
vt 0.500000 0.823529
vt 0.500000 1.000000
vt 0.000000 1.000000
vt -0.000000 0.823529
vt 0.000000 0.647059
vt 1.000000 0.647059
vt 1.000000 0.823529
vt 1.000000 1.000000
vt 0.500000 1.000000
vt 0.500000 0.823529
vt 0.000000 -0.000000
vt 1.000000 -0.000000
vn -0.9278 0.3731 0.0000
vn 0.0000 0.2865 -0.9581
vn 0.9278 0.3731 0.0000
vn 0.0000 0.2865 0.9581
vn 0.0000 -1.0000 0.0000
vn 0.0000 1.0000 0.0000
usemtl None
s off
f 105/209/79 106/210/79 108/211/79 107/212/79
f 107/213/80 108/214/80 112/215/80 111/216/80
f 111/216/81 112/217/81 110/218/81 109/219/81
f 109/219/82 110/220/82 106/221/82 105/222/82
f 107/212/83 111/223/83 109/224/83 105/209/83
f 112/217/84 108/211/84 106/210/84 110/218/84
o Cube.002
v 0.241509 -0.500000 -0.483017
v 0.191239 -0.375000 -0.445643
v 0.241508 -0.500000 -0.016983
v 0.191239 -0.375000 -0.054357
v 0.008492 -0.500000 -0.483017
v 0.058761 -0.375000 -0.445643
v 0.008491 -0.500000 -0.016983
v 0.058761 -0.375000 -0.054357
vt 1.000000 0.235294
vt 1.000000 0.411765
vt 0.000000 0.411765
vt 0.000000 0.235294
vt 0.500000 0.823529
vt 0.500000 1.000000
vt 0.000000 1.000000
vt -0.000000 0.823529
vt 0.000000 0.647059
vt 1.000000 0.647059
vt 1.000000 0.823529
vt 1.000000 1.000000
vt 0.500000 1.000000
vt 0.500000 0.823529
vt 0.000000 -0.000000
vt 1.000000 -0.000000
vn 0.9278 0.3731 0.0000
vn -0.0000 0.2865 0.9581
vn -0.9278 0.3731 -0.0000
vn 0.0000 0.2865 -0.9581
vn 0.0000 -1.0000 0.0000
vn 0.0000 1.0000 0.0000
usemtl None
s off
f 113/225/85 114/226/85 116/227/85 115/228/85
f 115/229/86 116/230/86 120/231/86 119/232/86
f 119/232/87 120/233/87 118/234/87 117/235/87
f 117/235/88 118/236/88 114/237/88 113/238/88
f 115/228/89 119/239/89 117/240/89 113/225/89
f 120/233/90 116/227/90 114/226/90 118/234/90
o Cube.001_Cube.002
v 0.258491 -0.500000 -0.016983
v 0.308761 -0.375000 -0.054357
v 0.258491 -0.500000 -0.483017
v 0.308761 -0.375000 -0.445643
v 0.491509 -0.500000 -0.016983
v 0.441239 -0.375000 -0.054357
v 0.491509 -0.500000 -0.483017
v 0.441239 -0.375000 -0.445643
vt 1.000000 0.235294
vt 1.000000 0.411765
vt 0.000000 0.411765
vt 0.000000 0.235294
vt 0.500000 0.823529
vt 0.500000 1.000000
vt 0.000000 1.000000
vt -0.000000 0.823529
vt 0.000000 0.647059
vt 1.000000 0.647059
vt 1.000000 0.823529
vt 1.000000 1.000000
vt 0.500000 1.000000
vt 0.500000 0.823529
vt 0.000000 -0.000000
vt 1.000000 -0.000000
vn -0.9278 0.3731 0.0000
vn 0.0000 0.2865 -0.9581
vn 0.9278 0.3731 0.0000
vn 0.0000 0.2865 0.9581
vn 0.0000 -1.0000 0.0000
vn 0.0000 1.0000 0.0000
usemtl None
s off
f 121/241/91 122/242/91 124/243/91 123/244/91
f 123/245/92 124/246/92 128/247/92 127/248/92
f 127/248/93 128/249/93 126/250/93 125/251/93
f 125/251/94 126/252/94 122/253/94 121/254/94
f 123/244/95 127/255/95 125/256/95 121/241/95
f 128/249/96 124/243/96 122/242/96 126/250/96
