# Blender v2.79 (sub 0) OBJ File: ''
# www.blender.org
g tunnel_tube_slant_2_Bottom_tunnel_tube_slant_Cube.002_Bottom
v 0.500000 -0.500000 -0.500000
v 0.500000 -0.500000 0.500000
v -0.500000 -0.500000 -0.500000
v -0.500000 -0.500000 0.500000
vt 1.000000 1.000000
vt 1.000000 0.000000
vt -0.000000 0.000000
vt 0.000000 1.000000
vn 0.0000 -1.0000 -0.0000
s 1
f 1/1/1 2/2/1 4/3/1 3/4/1
g tunnel_tube_slant_5_Front_tunnel_tube_slant_Cube.002_Front
v 0.500000 -0.500000 0.500000
v 0.500000 0.500000 0.000000
v -0.500000 0.500000 0.000000
v -0.500000 -0.500000 0.500000
vt 1.000000 0.000000
vt 1.000000 1.000000
vt -0.000000 1.000000
vt -0.000000 0.000000
vn 0.0000 0.4472 0.8944
s 1
f 5/5/2 6/6/2 7/7/2 8/8/2
g tunnel_tube_slant_1_Top_tunnel_tube_slant_Cube.002_Top
v 0.500000 0.500000 -1.000000
v -0.500000 0.500000 -1.000000
v 0.500000 0.500000 0.000000
v -0.500000 0.500000 0.000000
vt 1.000000 1.000000
vt 0.000000 1.000000
vt -0.000000 0.000000
vt 1.000000 -0.000000
vn 0.0000 1.0000 0.0000
s 1
f 9/9/3 10/10/3 12/11/3 11/12/3
g tunnel_tube_slant_3_Left_tunnel_tube_slant_Cube.002_Left
v -0.500000 -0.500000 0.500000
v -0.500000 0.500000 0.000000
v -0.500000 0.500000 -1.000000
v -0.500000 -0.500000 -0.500000
vt -0.000000 0.000000
vt 0.500000 1.000000
vt 1.500000 1.000000
vt 1.000000 0.000000
vn -1.0000 0.0000 0.0000
s 1
f 13/13/4 14/14/4 15/15/4 16/16/4
g tunnel_tube_slant_6_Back_tunnel_tube_slant_Cube.002_Back
v 0.500000 0.500000 -1.000000
v 0.500000 -0.500000 -0.500000
v -0.500000 -0.500000 -0.500000
v -0.500000 0.500000 -1.000000
vt 1.000000 1.000000
vt 1.000000 0.000000
vt 0.000000 0.000000
vt 0.000000 1.000000
vn 0.0000 -0.4472 -0.8944
s 1
f 17/17/5 18/18/5 19/19/5 20/20/5
g tunnel_tube_slant_4_Right_tunnel_tube_slant_Cube.002_Right
v 0.500000 -0.500000 -0.500000
v 0.500000 0.500000 -1.000000
v 0.500000 0.500000 0.000000
v 0.500000 -0.500000 0.500000
vt 1.000000 0.000000
vt 1.500000 1.000000
vt 0.500000 1.000000
vt 0.000000 0.000000
vn 1.0000 0.0000 0.0000
s 1
f 21/21/6 22/22/6 23/23/6 24/24/6
