<?xml version="1.0" encoding="UTF-8" standalone="no"?>
<!-- Created with Inkscape (http://www.inkscape.org/) -->

<svg
   xmlns:dc="http://purl.org/dc/elements/1.1/"
   xmlns:cc="http://creativecommons.org/ns#"
   xmlns:rdf="http://www.w3.org/1999/02/22-rdf-syntax-ns#"
   xmlns:svg="http://www.w3.org/2000/svg"
   xmlns="http://www.w3.org/2000/svg"
   xmlns:sodipodi="http://sodipodi.sourceforge.net/DTD/sodipodi-0.dtd"
   xmlns:inkscape="http://www.inkscape.org/namespaces/inkscape"
   width="16"
   height="16"
   id="svg2"
   version="1.1"
   inkscape:version="0.48.4 r9939"
   sodipodi:docname="cup_100.svg"
   inkscape:export-filename="/home/ben/progs/minetest/minetest-thirsty/textures/thirsty_cup_100_16.png"
   inkscape:export-xdpi="90"
   inkscape:export-ydpi="90">
  <defs
     id="defs4">
    <inkscape:path-effect
       effect="spiro"
       id="path-effect3824"
       is_visible="true" />
    <inkscape:path-effect
       effect="spiro"
       id="path-effect3820"
       is_visible="true" />
    <inkscape:path-effect
       effect="spiro"
       id="path-effect3761"
       is_visible="true" />
    <inkscape:path-effect
       effect="spiro"
       id="path-effect3761-8"
       is_visible="true" />
  </defs>
  <sodipodi:namedview
     id="base"
     pagecolor="#838181"
     bordercolor="#666666"
     borderopacity="1.0"
     inkscape:pageopacity="0"
     inkscape:pageshadow="2"
     inkscape:zoom="31.678384"
     inkscape:cx="5.2747873"
     inkscape:cy="10.523682"
     inkscape:document-units="px"
     inkscape:current-layer="layer1"
     showgrid="true"
     inkscape:window-width="1366"
     inkscape:window-height="744"
     inkscape:window-x="0"
     inkscape:window-y="24"
     inkscape:window-maximized="1"
     inkscape:snap-global="false">
    <inkscape:grid
       type="xygrid"
       id="grid3755"
       empspacing="5"
       visible="true"
       enabled="true"
       snapvisiblegridlinesonly="true" />
  </sodipodi:namedview>
  <metadata
     id="metadata7">
    <rdf:RDF>
      <cc:Work
         rdf:about="">
        <dc:format>image/svg+xml</dc:format>
        <dc:type
           rdf:resource="http://purl.org/dc/dcmitype/StillImage" />
        <dc:title></dc:title>
      </cc:Work>
    </rdf:RDF>
  </metadata>
  <g
     inkscape:label="Layer 1"
     inkscape:groupmode="layer"
     id="layer1"
     transform="translate(0,-1036.3622)">
    <g
       id="g3901"
       transform="translate(-0.06313453,-0.2841054)">
      <path
         transform="matrix(0.02586702,0,0,0.02586702,-0.759071,1034.7695)"
         d="m 520,252.36218 c 0,33.13709 -80.58875,60 -180,60 -99.41125,0 -180,-26.86291 -180,-60 0,-33.13708 80.58875,-60 180,-60 99.41125,0 180,26.86292 180,60 z"
         sodipodi:ry="60"
         sodipodi:rx="180"
         sodipodi:cy="252.36218"
         sodipodi:cx="340"
         id="path3757-7"
         style="fill:none;stroke:#000000;stroke-width:38.65926743;stroke-linecap:round;stroke-miterlimit:4;stroke-opacity:1;stroke-dasharray:none"
         sodipodi:type="arc" />
      <path
         sodipodi:nodetypes="cccc"
         inkscape:connector-curvature="0"
         inkscape:original-d="m 3.379651,1041.2974 2.0693612,8.7948 m 5.1734018,0 2.069363,-8.7948"
         inkscape:path-effect="#path-effect3761-8"
         id="path3759-1"
         d="m 3.379651,1041.2974 2.0693612,8.7948 m 5.1734018,0 2.069363,-8.7948"
         style="fill:none;stroke:#000000;stroke-width:1;stroke-linecap:butt;stroke-linejoin:miter;stroke-miterlimit:4;stroke-opacity:1;stroke-dasharray:none" />
      <path
         sodipodi:open="true"
         sodipodi:end="3.1415927"
         sodipodi:start="0"
         d="m 520,252.36218 c 0,33.13709 -80.58875,60 -180,60 -99.41125,0 -180,-26.86291 -180,-60 0,0 0,0 0,0"
         sodipodi:ry="60"
         sodipodi:rx="180"
         sodipodi:cy="252.36218"
         sodipodi:cx="340"
         id="path3757-2-9"
         style="fill:none;stroke:#000000;stroke-width:69.22486115;stroke-linecap:round;stroke-miterlimit:4;stroke-opacity:1;stroke-dasharray:none"
         sodipodi:type="arc"
         transform="matrix(0.0143204,0,0,0.01457205,3.175878,1046.32)" />
    </g>
    <path
       style="fill:#0000ff;fill-opacity:1;stroke:none"
       d="m 3.689367,1045.095 c 0,0 0.4980382,1.7713 1.0153769,4.0993 1.3456112,1.113 3.7701452,1.0024 5.173404,0 0.5173421,-2.328 0.8891071,-3.973 0.8891071,-3.973"
       id="path3822"
       inkscape:connector-curvature="0"
       sodipodi:nodetypes="cccc" />
    <path
       transform="matrix(0.01909962,0,0,0.01909962,0.73168267,1040.2584)"
       sodipodi:type="arc"
       style="fill:#0080ff;fill-opacity:1;stroke:none"
       id="path3757-25"
       sodipodi:cx="340"
       sodipodi:cy="252.36218"
       sodipodi:rx="180"
       sodipodi:ry="60"
       d="m 520,252.36218 a 180,60 0 1 1 -360,0 180,60 0 1 1 360,0 z" />
    <path
       sodipodi:type="arc"
       style="fill:none;stroke:#ffffff;stroke-width:38.65926743;stroke-linecap:round;stroke-miterlimit:4;stroke-opacity:1;stroke-dasharray:none"
       id="path3757"
       sodipodi:cx="340"
       sodipodi:cy="252.36218"
       sodipodi:rx="180"
       sodipodi:ry="60"
       d="m 520,252.36218 a 180,60 0 1 1 -360,0 180,60 0 1 1 360,0 z"
       transform="matrix(0.02586702,0,0,0.02586702,-1.6068063,1033.8716)" />
    <path
       style="fill:none;stroke:#ffffff;stroke-width:1;stroke-linecap:butt;stroke-linejoin:miter;stroke-miterlimit:4;stroke-opacity:1;stroke-dasharray:none"
       d="m 2.5319162,1040.3995 2.0693612,8.7948 m 5.1734015,0 2.0693631,-8.7948"
       id="path3759"
       inkscape:path-effect="#path-effect3761"
       inkscape:original-d="m 2.5319162,1040.3995 2.0693612,8.7948 m 5.1734015,0 2.0693631,-8.7948"
       inkscape:connector-curvature="0"
       sodipodi:nodetypes="cccc" />
    <path
       transform="matrix(0.0143204,0,0,0.01457205,2.3281432,1045.4221)"
       sodipodi:type="arc"
       style="fill:none;stroke:#ffffff;stroke-width:69.22486115;stroke-linecap:round;stroke-miterlimit:4;stroke-opacity:1;stroke-dasharray:none"
       id="path3757-2"
       sodipodi:cx="340"
       sodipodi:cy="252.36218"
       sodipodi:rx="180"
       sodipodi:ry="60"
       d="m 520,252.36218 a 180,60 0 1 1 -360,0"
       sodipodi:start="0"
       sodipodi:end="3.1415927"
       sodipodi:open="true" />
  </g>
</svg>
