# Blender v2.77 (sub 0) OBJ File: 'hex crystal 30.blend'
# www.blender.org
mtllib hex_crystal_30_med.mtl
o Cylinder
v -0.000000 -0.665758 0.095701
v 0.000000 0.960964 -0.843488
v -0.250000 -0.499868 -0.000076
v -0.250000 0.795074 -0.747711
v -0.125000 -0.608121 -0.187576
v -0.125000 0.686821 -0.935211
v 0.125000 -0.608121 -0.187576
v 0.125000 0.686821 -0.935212
v 0.250000 -0.499868 -0.000076
v 0.250000 0.795074 -0.747711
v 0.125000 -0.391615 0.187424
v 0.125000 0.903327 -0.560211
v -0.125000 -0.391615 0.187424
v -0.125000 0.903327 -0.560211
vt 0.4999 0.0000
vt 0.4999 1.0000
vt 0.3332 1.0000
vt 0.3332 0.0000
vt 0.1665 1.0000
vt 0.1665 0.0000
vt 0.0000 1.0000
vt 0.0000 0.0000
vt 1.0000 -0.0000
vt 1.0000 1.0000
vt 0.8333 1.0000
vt 0.8333 -0.0000
vt 0.6666 1.0000
vt 0.6666 -0.0000
vt 0.0000 0.0000
vt 0.0000 0.0000
vt 0.0000 0.0000
vt 0.0000 0.0000
vt 0.0000 0.0000
vt 0.0000 0.0000
vt 0.0000 0.0000
vt 0.0000 0.0000
vt 0.0000 0.0000
vt 0.0000 0.0000
vt 0.0000 0.0000
vt 0.0000 0.0000
vt 0.5000 0.5000
vt 0.9313 0.7490
vt 0.5000 0.9980
vt 0.5000 0.5000
vt 0.5000 0.0020
vt 0.9313 0.2510
vt 0.0687 0.7490
vt 0.0687 0.2510
vt 0.0687 0.2510
vt 0.0687 0.7490
vt 0.5000 0.0020
vt 0.5000 0.9980
vt 0.9313 0.2510
vt 0.9313 0.7490
vn -0.8660 -0.2500 -0.4330
vn 0.0000 -0.5000 -0.8660
vn 0.8660 -0.2500 -0.4330
vn 0.8660 0.2500 0.4330
vn 0.0000 0.5000 0.8660
vn -0.8660 0.2500 0.4330
vn 0.0000 0.8660 -0.5000
vn 0.8375 0.4733 -0.2732
vn 0.8375 -0.4733 0.2732
vn -0.5739 -0.8143 0.0875
vn -0.5739 0.4830 -0.6614
vn 0.0000 -0.9799 -0.1994
vn -0.0000 0.3173 -0.9483
vn 0.5739 -0.8143 0.0875
vn 0.5739 0.4830 -0.6614
vn 0.5739 -0.4830 0.6614
vn 0.5739 0.8143 -0.0875
vn 0.0000 -0.3173 0.9483
vn 0.0000 0.9799 0.1994
vn -0.5739 -0.4830 0.6614
vn -0.5739 0.8143 -0.0875
g Cylinder_Cylinder_Side_Mat
usemtl Side_Mat
s off
f 3/1/1 4/2/1 6/3/1 5/4/1
f 5/4/2 6/3/2 8/5/2 7/6/2
f 7/6/3 8/5/3 10/7/3 9/8/3
f 9/9/4 10/10/4 12/11/4 11/12/4
f 11/12/5 12/11/5 14/13/5 13/14/5
f 13/14/6 14/13/6 4/2/6 3/1/6
f 10/15/7 8/16/7 12/17/7
f 12/17/8 8/16/8 2/18/8
f 2/18/1 8/16/1 14/19/1
f 14/19/7 8/16/7 6/20/7
f 14/19/9 6/20/9 2/18/9
f 11/21/9 1/22/9 7/23/9
f 7/23/1 1/22/1 13/24/1
f 13/24/8 1/22/8 5/25/8
f 9/8/7 7/23/7 11/21/7
f 11/21/7 7/23/7 13/24/7
f 13/24/7 7/23/7 5/25/7
f 13/24/7 5/25/7 3/26/7
g Cylinder_Cylinder_End_Mat
usemtl End_Mat
f 1/27/10 3/28/10 5/29/10
f 2/30/11 6/31/11 4/32/11
f 1/27/12 5/29/12 7/33/12
f 2/30/13 8/34/13 6/31/13
f 1/27/14 7/33/14 9/35/14
f 2/30/15 10/36/15 8/34/15
f 1/27/16 9/35/16 11/37/16
f 2/30/17 12/38/17 10/36/17
f 1/27/18 11/37/18 13/39/18
f 2/30/19 14/40/19 12/38/19
f 1/27/20 13/39/20 3/28/20
f 2/30/21 4/32/21 14/40/21
