# Blender v2.60 (sub 0) OBJ File: 'p1.blend'
# www.blender.org
mtllib crops_plant_extra_face.mtl
o Mesh_Stem_Stem
v -0.000000 0.500000 0.500000
v 0.000000 -0.500000 0.500000
v 0.000000 -0.500000 -0.500000
v -0.000000 0.500000 -0.500000
vt 0.000000 0.000000
vt 1.000000 0.000000
vt 1.000000 1.000000
vt 0.000000 1.000000
vn 1.000000 0.000000 -0.000000
g Mesh_Stem_Stem_Material.002
usemtl Material.002
s off
f 1/1/1 2/2/1 3/3/1 4/4/1
o Mesh_Plant_Plant
v 0.359670 -0.500000 0.347329
v 0.359670 0.500000 0.347329
v -0.359670 0.500000 -0.347329
v -0.359670 -0.500000 -0.347329
v -0.347329 -0.500000 0.359670
v -0.347329 0.500000 0.359670
v 0.347329 0.500000 -0.359670
v 0.347329 -0.500000 -0.359670
v 0.359670 -0.500000 0.347329
v -0.359670 -0.500000 -0.347329
v -0.359670 0.500000 -0.347329
v 0.359670 0.500000 0.347329
v -0.347329 -0.500000 0.359670
v 0.347329 -0.500000 -0.359670
v 0.347329 0.500000 -0.359670
v -0.347329 0.500000 0.359670
vt 1.000000 0.000000
vt 1.000000 1.000000
vt 0.000000 1.000000
vt 0.000000 0.000000
vn -0.694658 0.000000 0.719340
vn -0.719340 -0.000000 -0.694658
vn 0.694658 -0.000000 -0.719340
vn 0.719340 0.000000 0.694658
g Mesh_Plant_Plant_Material.001
usemtl Material.001
s off
f 5/5/2 6/6/2 7/7/2 8/8/2
f 9/5/3 10/6/3 11/7/3 12/8/3
f 13/5/4 14/8/4 15/7/4 16/6/4
f 17/5/5 18/8/5 19/7/5 20/6/5
