# Blender v2.79 (sub 0) OBJ File: 'vintage_lantern_wall2_merged.blend'
# www.blender.org
o Cube.003
v -0.125000 -0.187500 -0.312500
v -0.125000 -0.187500 0.062500
v -0.125000 0.062500 -0.312500
v -0.125000 0.062500 0.062500
v 0.125000 -0.187500 -0.312500
v 0.125000 -0.187500 0.062500
v 0.125000 0.062500 -0.312500
v 0.125000 0.062500 0.062500
v -0.000000 -0.437500 0.312500
v 0.000000 -0.437500 0.062500
v -0.000000 0.062500 0.312500
v 0.000000 0.062500 0.062500
vt 0.750000 0.500000
vt 0.750000 0.875000
vt 0.500000 0.875000
vt 0.500000 0.500000
vt 0.250000 0.875000
vt 0.250000 0.500000
vt 0.000000 0.875000
vt 0.000000 0.500000
vt 1.000000 0.500000
vt 1.000000 0.875000
vt 0.000000 0.500000
vt 0.000000 0.250000
vt 0.500000 0.250000
vt 0.500000 0.500000
vt 0.750000 0.250000
vt 1.000000 0.250000
vn -1.0000 0.0000 0.0000
vn 0.0000 1.0000 0.0000
vn 1.0000 0.0000 0.0000
vn 0.0000 -1.0000 0.0000
vn 0.0000 0.0000 -1.0000
g Cube.003_Cube.003_Material.001
s off
f 1/1/1 2/2/1 4/3/1 3/4/1
f 3/4/2 4/3/2 8/5/2 7/6/2
f 7/6/3 8/5/3 6/7/3 5/8/3
f 5/9/4 6/10/4 2/2/4 1/1/4
f 9/11/3 10/12/3 12/13/3 11/14/3
f 3/15/5 7/16/5 5/9/5 1/1/5
o Cube.001
v -0.156250 -0.218750 0.062500
v -0.156250 -0.218750 0.125000
v -0.156250 0.093750 0.062500
v -0.156250 0.093750 0.125000
v 0.156250 -0.218750 0.062500
v 0.156250 -0.218750 0.125000
v 0.156250 0.093750 0.062500
v 0.156250 0.093750 0.125000
v -0.062500 -0.125000 0.125000
v -0.062500 -0.125000 0.187500
v -0.062500 -0.000000 0.125000
v -0.062500 -0.000000 0.187500
v 0.062500 -0.125000 0.125000
v 0.062500 -0.125000 0.187500
v 0.062500 -0.000000 0.125000
v 0.062500 -0.000000 0.187500
v 0.125000 -0.500000 -0.125000
v 0.125000 -0.500000 0.375000
v -0.125000 -0.500000 -0.125000
v -0.125000 -0.500000 0.375000
v 0.125000 -0.437500 -0.125000
v 0.125000 -0.437500 0.375000
v -0.125000 -0.437500 -0.125000
v -0.125000 -0.437500 0.375000
vt 0.500000 0.875000
vt 0.500000 0.812500
vt 0.812500 0.812500
vt 0.812500 0.875000
vt 0.812500 0.812500
vt 0.812500 0.875000
vt 0.500000 0.875000
vt 0.500000 0.812500
vt 0.187500 0.875000
vt 0.187500 0.812500
vt 0.187500 0.875000
vt 0.187500 0.812500
vt 0.500000 0.812500
vt 0.187500 0.812500
vt 0.187500 0.500000
vt 0.500000 0.500000
vt 0.500000 0.500000
vt 0.500000 0.812500
vt 0.187500 0.812500
vt 0.187500 0.500000
vt 1.000000 0.375000
vt 1.000000 0.437500
vt 0.875000 0.437500
vt 0.875000 0.375000
vt 0.750000 0.437500
vt 0.750000 0.375000
vt 0.625000 0.437500
vt 0.625000 0.375000
vt 0.500000 0.437500
vt 0.500000 0.375000
vt 0.625000 0.625000
vt 0.500000 0.625000
vt 0.500000 0.500000
vt 0.625000 0.500000
vt 0.937500 0.250000
vt 0.937500 0.750000
vt 0.687500 0.750000
vt 0.687500 0.250000
vt 0.625000 0.750000
vt 0.625000 0.250000
vt 0.375000 0.750000
vt 0.375000 0.250000
vt 0.312500 0.750000
vt 0.312500 0.250000
vt 0.687500 0.187500
vt 0.937500 0.187500
vt 0.687500 0.812500
vt 0.937500 0.812500
vn -1.0000 0.0000 0.0000
vn 0.0000 1.0000 0.0000
vn 1.0000 0.0000 0.0000
vn 0.0000 -1.0000 0.0000
vn 0.0000 0.0000 -1.0000
vn 0.0000 0.0000 1.0000
g Cube.001_Cube.001_Material.000
s off
f 13/17/6 14/18/6 16/19/6 15/20/6
f 15/21/7 16/22/7 20/23/7 19/24/7
f 19/24/8 20/23/8 18/25/8 17/26/8
f 17/27/9 18/28/9 14/18/9 13/17/9
f 15/29/10 19/30/10 17/31/10 13/32/10
f 20/33/11 16/34/11 14/35/11 18/36/11
f 21/37/6 22/38/6 24/39/6 23/40/6
f 23/40/7 24/39/7 28/41/7 27/42/7
f 27/42/8 28/41/8 26/43/8 25/44/8
f 25/44/9 26/43/9 22/45/9 21/46/9
f 28/47/11 24/48/11 22/49/11 26/50/11
f 29/51/9 30/52/9 32/53/9 31/54/9
f 31/54/6 32/53/6 36/55/6 35/56/6
f 35/56/7 36/55/7 34/57/7 33/58/7
f 33/58/8 34/57/8 30/59/8 29/60/8
f 31/54/10 35/61/10 33/62/10 29/51/10
f 36/63/11 32/53/11 30/52/11 34/64/11
