# Blender v2.79 (sub 0) OBJ File: 'ingot_big.blend'
# www.blender.org
mtllib ingot_1.mtl
o Cube.005_Cube.002
v -0.491509 -0.500000 -0.016983
v -0.441239 -0.375000 -0.054357
v -0.491508 -0.500000 -0.483017
v -0.441239 -0.375000 -0.445643
v -0.258492 -0.500000 -0.016983
v -0.308761 -0.375000 -0.054357
v -0.258491 -0.500000 -0.483017
v -0.308761 -0.375000 -0.445643
vt 1.000000 0.235294
vt 1.000000 0.411765
vt 0.000000 0.411765
vt 0.000000 0.235294
vt 0.500000 0.823529
vt 0.500000 1.000000
vt 0.000000 1.000000
vt -0.000000 0.823529
vt 0.000000 0.647059
vt 1.000000 0.647059
vt 1.000000 0.823529
vt 1.000000 1.000000
vt 0.500000 1.000000
vt 0.500000 0.823529
vt 0.000000 -0.000000
vt 1.000000 -0.000000
vn -0.9278 0.3731 -0.0000
vn 0.0000 0.2865 -0.9581
vn 0.9278 0.3731 0.0000
vn -0.0000 0.2865 0.9581
vn 0.0000 -1.0000 0.0000
vn 0.0000 1.0000 0.0000
usemtl None
s off
f 1/1/1 2/2/1 4/3/1 3/4/1
f 3/5/2 4/6/2 8/7/2 7/8/2
f 7/8/3 8/9/3 6/10/3 5/11/3
f 5/11/4 6/12/4 2/13/4 1/14/4
f 3/4/5 7/15/5 5/16/5 1/1/5
f 8/9/6 4/3/6 2/2/6 6/10/6
