# Blender v2.79 (sub 0) OBJ File: 'basic_signs wooden yard sign.blend'
# www.blender.org
o Cube
v 0.437500 -0.250000 -0.000000
v 0.437500 -0.250000 -0.062500
v 0.437500 0.375000 0.000000
v 0.437500 0.375000 -0.062500
v -0.437500 -0.250000 -0.000000
v -0.437500 -0.250000 -0.062500
v -0.437500 0.375000 0.000000
v -0.437500 0.375000 -0.062500
v 0.437500 -0.250000 -0.000000
v 0.437500 -0.250000 -0.062500
v 0.437500 0.375000 0.000000
v 0.437500 0.375000 -0.062500
v -0.437500 -0.250000 -0.000000
v -0.437500 -0.250000 -0.062500
v -0.437500 0.375000 0.000000
v -0.437500 0.375000 -0.062500
v 0.062500 -0.500000 0.000000
v 0.062500 0.250000 0.000000
v 0.062500 -0.500000 0.062500
v 0.062500 0.250000 0.062500
v -0.062500 -0.500000 0.000000
v -0.062500 0.250000 0.000000
v -0.062500 -0.500000 0.062500
v -0.062500 0.250000 0.062500
vt 0.468750 0.812500
vt 0.031250 0.812500
vt 0.031250 0.187500
vt 0.468750 0.187500
vt 0.531250 0.812500
vt 0.968750 0.812500
vt 0.968750 0.187500
vt 0.531250 0.187500
vt 0.234375 0.000000
vt 0.234375 1.000000
vt 0.015625 1.000000
vt 0.015625 -0.000000
vt 0.609375 -0.000000
vt 0.609375 1.000000
vt 0.390625 1.000000
vt 0.390625 -0.000000
vt 0.765625 0.000000
vt 0.765625 1.000000
vt 0.000000 0.750000
vt 2.000000 0.750000
vt 2.000000 0.875000
vt 0.000000 0.875000
vt 0.000000 0.125000
vt 2.000000 0.125000
vt 2.000000 0.375000
vt 0.000000 0.375000
vt 2.000000 0.500000
vt 0.000000 0.500000
vt 0.812500 0.875000
vt 0.562500 0.875000
vt 0.562500 1.000000
vt 0.812500 1.000000
vt 0.125000 0.875000
vt 0.375000 0.875000
vt 0.375000 1.000000
vt 0.125000 1.000000
vn 0.0000 0.0000 -1.0000
vn 0.0000 -0.0000 1.0000
vn 0.0000 -1.0000 0.0000
vn 0.0000 1.0000 0.0000
vn 1.0000 0.0000 0.0000
vn -1.0000 0.0000 0.0000
g Cube_Cube_front-back
s off
f 8/1/1 4/2/1 2/3/1 6/4/1
f 3/5/2 7/6/2 5/7/2 1/8/2
g Cube_Cube_edges
f 13/9/3 14/10/3 10/11/3 9/12/3
f 11/13/4 12/14/4 16/15/4 15/16/4
f 11/13/5 9/17/5 10/18/5 12/14/5
f 13/9/6 15/16/6 16/15/6 14/10/6
g Cube_Cube_default_wood
f 17/19/5 18/20/5 20/21/5 19/22/5
f 19/23/2 20/24/2 24/25/2 23/26/2
f 23/26/6 24/25/6 22/27/6 21/28/6
f 21/28/1 22/27/1 18/20/1 17/19/1
f 19/29/3 23/30/3 21/31/3 17/32/3
f 24/33/4 20/34/4 18/35/4 22/36/4
