# Blender v2.79 (sub 0) OBJ File: 'basic_signs wooden yard sign two sticks.blend'
# www.blender.org
o Cube
v 0.437500 -0.250000 -0.000000
v 0.437500 -0.250000 -0.062500
v 0.437500 0.375000 0.000000
v -0.437500 0.375000 0.000000
v -0.437500 0.375000 -0.062500
v 0.437500 0.375000 -0.062500
v -0.437500 -0.250000 -0.000000
v -0.437500 -0.250000 -0.062500
v 0.421875 -0.500000 0.000000
v 0.421875 0.250000 0.000000
v 0.421875 -0.500000 0.031250
v 0.390625 -0.500000 0.000000
v 0.390625 0.250000 0.000000
v 0.390625 -0.500000 0.031250
v -0.390625 -0.500000 0.000000
v -0.390625 -0.500000 0.031250
v -0.421875 -0.500000 0.000000
v -0.421875 0.250000 0.000000
v -0.421875 -0.500000 0.031250
v 0.421875 0.218750 0.031250
v 0.390625 0.218750 0.031250
v -0.390625 0.250000 0.000000
v -0.390625 0.218750 0.031250
v -0.421875 0.218750 0.031250
vt 0.468750 0.812500
vt 0.031250 0.812500
vt 0.031250 0.187500
vt 0.468750 0.187500
vt 0.531250 0.812500
vt 0.968750 0.812500
vt 0.968750 0.187500
vt 0.531250 0.187500
vt 0.234375 0.000000
vt 0.234375 1.000000
vt 0.015625 1.000000
vt 0.015625 -0.000000
vt 0.609375 -0.000000
vt 0.609375 1.000000
vt 0.390625 1.000000
vt 0.390625 -0.000000
vt 0.765625 0.000000
vt 0.765625 1.000000
vt 0.000000 0.375000
vt 1.437500 0.375000
vt 1.437500 0.437500
vt 0.000000 0.437500
vt 1.500000 0.500000
vt 0.000000 0.500000
vt 1.500000 0.562500
vt 0.000000 0.562500
vt 0.750000 0.875000
vt 0.625000 0.875000
vt 0.625000 1.000000
vt 0.750000 1.000000
vt 1.437500 0.625000
vt 0.000000 0.625000
vt 0.000000 0.375000
vt 1.437500 0.375000
vt 1.437500 0.437500
vt 0.000000 0.437500
vt 1.500000 0.500000
vt 0.000000 0.500000
vt 1.500000 0.562500
vt 0.000000 0.562500
vt 0.750000 0.875000
vt 0.625000 0.875000
vt 0.625000 1.000000
vt 0.750000 1.000000
vt 1.437500 0.625000
vt 0.000000 0.625000
vt 0.312500 1.000000
vt 0.187500 1.000000
vt 0.187500 0.875000
vt 0.312500 0.875000
vt 0.312500 1.000000
vt 0.187500 1.000000
vt 0.187500 0.875000
vt 0.312500 0.875000
vn 0.0000 0.0000 -1.0000
vn 0.0000 -0.0000 1.0000
vn 0.0000 -1.0000 0.0000
vn 0.0000 1.0000 0.0000
vn 1.0000 -0.0000 0.0000
vn -1.0000 -0.0000 0.0000
vn 0.0000 0.7071 0.7071
g Cube_Cube_front-back
s off
f 5/1/1 6/2/1 2/3/1 8/4/1
f 3/5/2 4/6/2 7/7/2 1/8/2
g Cube_Cube_edges
f 7/9/3 8/10/3 2/11/3 1/12/3
f 3/13/4 6/14/4 5/15/4 4/16/4
f 3/13/5 1/17/5 2/18/5 6/14/5
f 7/9/6 4/16/6 5/15/6 8/10/6
g Cube_Cube_sticks
f 11/19/2 20/20/2 21/21/2 14/22/2
f 14/22/6 21/21/6 13/23/6 12/24/6
f 12/24/1 13/23/1 10/25/1 9/26/1
f 11/27/3 14/28/3 12/29/3 9/30/3
f 9/26/5 10/25/5 20/31/5 11/32/5
f 16/33/2 23/34/2 24/35/2 19/36/2
f 19/36/6 24/35/6 18/37/6 17/38/6
f 17/38/1 18/37/1 22/39/1 15/40/1
f 16/41/3 19/42/3 17/43/3 15/44/3
f 15/40/5 22/39/5 23/45/5 16/46/5
f 10/47/7 13/48/7 21/49/7 20/50/7
f 22/51/7 18/52/7 24/53/7 23/54/7
