# Blender v2.79 (sub 0) OBJ File: 'portalgun_gun.blend'
# www.blender.org
mtllib portalgun_gun.mtl
o Cube.008_Cube.011
v -0.824275 -0.640885 0.035717
v -0.824275 -0.624073 0.035717
v -0.900373 -0.640885 0.035717
v -0.900373 -0.624073 0.035717
v -0.824275 -0.640885 -0.040381
v -0.824275 -0.624073 -0.040381
v -0.900373 -0.640885 -0.040381
v -0.900373 -0.624073 -0.040381
v 0.298651 -0.961958 0.168457
v 0.298651 -0.867466 0.168457
v 0.198225 -0.961958 0.168457
v 0.198225 -0.867466 0.168457
v 0.298651 -0.961958 -0.171481
v 0.298651 -0.867466 -0.171481
v 0.198225 -0.961958 -0.171481
v 0.198225 -0.867466 -0.171481
v -0.464741 -0.643517 0.010287
v -0.464741 -0.632455 0.010287
v -1.497425 -0.643517 0.010287
v -1.497425 -0.632455 0.010287
v -0.464741 -0.643517 -0.014951
v -0.464741 -0.632455 -0.014951
v -1.497425 -0.643517 -0.014951
v -1.497425 -0.632455 -0.014951
v 0.342087 -1.180633 0.229254
v 0.342087 -0.932560 0.229254
v -0.197918 -1.180633 0.229254
v -0.197918 -0.932560 0.229254
v 0.342087 -1.180633 -0.233919
v 0.342087 -0.932560 -0.233919
v -0.197918 -1.180633 -0.233919
v -0.197918 -0.932560 -0.233919
v 0.205294 -0.929814 0.206601
v 0.205294 -0.741291 0.206601
v -0.076559 -0.929814 0.206601
v -0.076559 -0.741291 0.206601
v 0.205294 -0.929814 -0.209625
v 0.205294 -0.741291 -0.209625
v -0.076559 -0.929814 -0.209625
v -0.076559 -0.741291 -0.209625
v 0.205294 -0.914219 0.085330
v 0.205294 -0.756885 0.085330
v 0.205294 -0.756885 -0.088354
v 0.205294 -0.914219 -0.088354
v 0.399700 -0.914219 0.085330
v 0.399700 -0.756885 0.085330
v 0.399700 -0.756885 -0.088354
v 0.399700 -0.914219 -0.088354
v 0.709501 -0.507897 -0.040582
v 0.709501 -0.507897 0.063308
v -0.026700 -0.966701 -0.040582
v -0.026700 -0.966701 0.063308
v 0.709501 -0.440654 -0.040582
v 0.709501 -0.440654 0.063308
v -0.038733 -0.836978 -0.040582
v -0.038733 -0.836978 0.063308
v 0.304595 -0.507897 -0.040582
v 0.304595 -0.507897 0.063308
v 0.292561 -0.414821 -0.040582
v 0.292561 -0.414821 0.063308
v 0.803142 -0.672666 -0.040582
v 0.803142 -0.672666 0.063308
v 0.803142 -0.605423 0.063308
v 0.803142 -0.605423 -0.040582
v 0.709501 -0.999593 0.541470
v 0.709501 -1.103483 0.541470
v -0.026700 -0.999593 0.082666
v -0.026700 -1.103483 0.082666
v 0.709501 -0.999593 0.608713
v 0.709501 -1.103483 0.608713
v -0.038733 -0.999593 0.212389
v -0.038733 -1.103483 0.212389
v 0.304595 -0.999593 0.541470
v 0.304595 -1.103483 0.541470
v 0.292561 -0.999593 0.634546
v 0.292561 -1.103483 0.634546
v 0.803142 -0.999593 0.376701
v 0.803142 -1.103483 0.376701
v 0.803142 -1.103483 0.443943
v 0.803142 -0.999593 0.443943
v 0.709501 -1.103483 -0.543566
v 0.709501 -0.999593 -0.543566
v -0.026700 -1.103483 -0.084762
v -0.026700 -0.999593 -0.084762
v 0.709501 -1.103483 -0.610808
v 0.709501 -0.999593 -0.610808
v -0.038733 -1.103483 -0.214484
v -0.038733 -0.999593 -0.214484
v 0.304595 -1.103483 -0.543566
v 0.304595 -0.999593 -0.543566
v 0.292561 -1.103483 -0.636641
v 0.292561 -0.999593 -0.636641
v 0.803142 -1.103483 -0.378796
v 0.803142 -0.999593 -0.378796
v 0.803142 -0.999593 -0.446039
v 0.803142 -1.103483 -0.446039
v -0.461715 -1.170028 0.306950
v -0.461715 -0.638518 0.306950
v -1.500452 -1.170028 0.306950
v -1.500452 -0.638518 0.306950
v -0.461715 -1.170028 -0.311614
v -0.461715 -0.638518 -0.311614
v -1.500452 -1.170028 -0.311614
v -1.500452 -0.638518 -0.311614
v -0.461715 -1.161029 0.142840
v -0.461715 -0.872177 0.142840
v -0.461715 -0.872177 -0.147504
v -0.461715 -1.161029 -0.147504
v -0.056922 -1.161029 0.142840
v -0.056922 -0.872177 0.142840
v -0.056922 -0.872177 -0.147504
v -0.056922 -1.161029 -0.147504
v -0.072676 -0.878090 0.065201
v -0.072676 -0.809268 0.065201
v -0.469994 -0.878090 0.065201
v -0.469994 -0.809268 0.065201
v -0.072676 -0.878090 -0.069866
v -0.072676 -0.809268 -0.069866
v -0.469994 -0.878090 -0.069866
v -0.469994 -0.809268 -0.069866
vt 0.323664 0.806632
vt 0.323664 0.790538
vt 0.307570 0.790538
vt 0.307570 0.806632
vt 0.302199 0.773772
vt 0.302199 0.757678
vt 0.286105 0.757678
vt 0.286105 0.773772
vt 0.305371 0.771301
vt 0.305371 0.755207
vt 0.321464 0.755207
vt 0.321464 0.771301
vt 0.257195 0.758194
vt 0.257195 0.742100
vt 0.273289 0.742100
vt 0.273289 0.758194
vt 0.894527 0.380207
vt 0.878433 0.380207
vt 0.878433 0.396301
vt 0.894527 0.396301
vt 0.301730 0.703366
vt 0.317824 0.703366
vt 0.317824 0.719459
vt 0.301730 0.719459
vt 0.577565 0.294912
vt 0.577565 0.204460
vt 0.556326 0.204460
vt 0.556326 0.294912
vt 0.762882 0.811451
vt 0.762882 0.720999
vt 0.690990 0.720999
vt 0.690990 0.811451
vt 0.743052 0.309144
vt 0.743052 0.218692
vt 0.764290 0.218692
vt 0.764290 0.309144
vt 0.586816 0.327938
vt 0.586816 0.237487
vt 0.658709 0.237487
vt 0.658709 0.327938
vt 0.822079 0.414324
vt 0.750187 0.414324
vt 0.750187 0.435562
vt 0.822079 0.435562
vt 0.854993 0.406308
vt 0.926885 0.406308
vt 0.926885 0.427546
vt 0.854993 0.427546
vt 0.758787 0.181297
vt 0.748198 0.181297
vt 0.748198 0.399696
vt 0.758787 0.399696
vt 0.222660 0.707774
vt 0.222660 0.697185
vt 0.217323 0.697185
vt 0.217323 0.707774
vt 0.774940 0.939398
vt 0.764351 0.939398
vt 0.764351 0.720999
vt 0.774940 0.720999
vt 0.707604 0.441367
vt 0.707604 0.430778
vt 0.712941 0.430778
vt 0.712941 0.441367
vt 0.990004 0.682182
vt 0.984667 0.682182
vt 0.984667 0.900581
vt 0.990004 0.900581
vt 0.711488 0.164038
vt 0.716826 0.164038
vt 0.716826 0.382437
vt 0.711488 0.382437
vt 0.816637 0.784387
vt 0.816637 0.546922
vt 0.702433 0.546922
vt 0.702433 0.784387
vt 0.869205 0.677339
vt 0.631740 0.677339
vt 0.631740 0.775294
vt 0.869205 0.775294
vt 0.686931 0.851637
vt 0.686931 0.614172
vt 0.801135 0.614172
vt 0.801135 0.851637
vt 0.875822 0.770983
vt 0.638357 0.770983
vt 0.638357 0.673028
vt 0.875822 0.673028
vt 0.575317 0.681964
vt 0.575317 0.779919
vt 0.689521 0.779919
vt 0.689521 0.681964
vt 0.697703 0.780911
vt 0.697703 0.682956
vt 0.811906 0.682956
vt 0.811906 0.780911
vt 0.780478 0.302730
vt 0.780478 0.122270
vt 0.720870 0.122270
vt 0.720870 0.302730
vt 0.541450 0.334280
vt 0.541450 0.153819
vt 0.453423 0.153819
vt 0.453423 0.334280
vt 0.770477 0.363124
vt 0.770477 0.182664
vt 0.830085 0.182664
vt 0.830085 0.363124
vt 0.984338 0.381157
vt 0.984338 0.293130
vt 0.999266 0.318778
vt 0.999266 0.355510
vt 0.429569 0.888377
vt 0.341543 0.888377
vt 0.341543 0.947985
vt 0.429569 0.947985
vt 0.501028 0.210138
vt 0.589054 0.210138
vt 0.589054 0.269746
vt 0.501028 0.269746
vt 0.601791 0.288544
vt 0.638522 0.288544
vt 0.638522 0.329659
vt 0.601791 0.329659
vt 0.860979 0.129072
vt 0.860979 0.309533
vt 0.835332 0.294605
vt 0.835332 0.143999
vt 0.838824 0.129072
vt 0.838824 0.309533
vt 0.813177 0.294605
vt 0.813177 0.143999
vt 0.918177 0.864313
vt 0.918177 0.952339
vt 0.903250 0.926692
vt 0.903250 0.889960
vt 0.204551 0.825934
vt 0.204551 0.675328
vt 0.241283 0.675328
vt 0.241283 0.825934
vt 0.707604 0.429309
vt 0.707604 0.278703
vt 0.748718 0.278703
vt 0.748718 0.429309
vt 0.806511 0.371741
vt 0.769779 0.371741
vt 0.769779 0.412855
vt 0.806511 0.412855
vt 0.528036 0.163741
vt 0.528036 0.314347
vt 0.569151 0.314347
vt 0.569151 0.163741
vt 0.853525 0.439919
vt 0.831553 0.439919
vt 0.831553 0.000734
vt 0.853525 0.000734
vt 0.963277 0.293130
vt 0.941306 0.293131
vt 0.941306 0.417306
vt 0.963277 0.417306
vt 0.479784 0.310112
vt 0.479784 0.288141
vt 0.567961 0.288141
vt 0.567961 0.310112
vt 0.855986 0.212685
vt 0.834015 0.212685
vt 0.834015 0.370408
vt 0.855986 0.370408
vt 0.880978 0.291662
vt 0.878433 0.202566
vt 0.966610 0.227295
vt 0.966610 0.291662
vt 0.346770 0.214213
vt 0.349315 0.303309
vt 0.434947 0.303309
vt 0.434947 0.238942
vt 0.792840 0.274399
vt 0.801096 0.320109
vt 0.801096 0.153783
vt 0.794907 0.121029
vt 0.822710 0.422944
vt 0.808393 0.343679
vt 0.811978 0.077721
vt 0.822710 0.134520
vt 0.876965 0.000734
vt 0.854993 0.000734
vt 0.854993 0.404839
vt 0.876965 0.404839
vt 0.565416 0.331072
vt 0.565416 0.309101
vt 0.479784 0.309101
vt 0.479784 0.331072
vt 0.648378 0.311690
vt 0.626407 0.311691
vt 0.626407 0.247323
vt 0.648378 0.247323
vt 0.755009 0.283073
vt 0.746990 0.346939
vt 0.746990 0.187977
vt 0.755009 0.124111
vt 0.968079 0.291662
vt 0.976098 0.227796
vt 0.976098 0.068834
vt 0.968079 0.132700
vt 0.792647 0.376087
vt 0.770676 0.376087
vt 0.770676 0.218363
vt 0.792647 0.218363
vt 0.161053 0.144728
vt 0.260500 0.144728
vt 0.260500 0.241759
vt 0.161053 0.241759
vt 0.701543 0.814202
vt 0.701543 0.714755
vt 0.674109 0.714755
vt 0.674109 0.814202
vt 0.407688 0.229263
vt 0.407688 0.328710
vt 0.495865 0.328711
vt 0.495865 0.229263
vt 0.601273 0.229004
vt 0.601273 0.328452
vt 0.636119 0.328452
vt 0.636119 0.229004
vt 0.430242 0.255493
vt 0.427697 0.235808
vt 0.515874 0.241272
vt 0.515874 0.255493
vt 0.592799 0.229050
vt 0.595344 0.248734
vt 0.680977 0.248734
vt 0.680977 0.234513
vt 0.964746 0.406530
vt 0.982870 0.427282
vt 0.982870 0.307599
vt 0.969283 0.293130
vt 0.819764 0.358273
vt 0.801640 0.337520
vt 0.806177 0.224121
vt 0.819764 0.238589
vt 0.525820 0.317804
vt 0.525820 0.218356
vt 0.436540 0.218356
vt 0.436540 0.317804
vt 0.619302 0.211561
vt 0.619302 0.311008
vt 0.533670 0.311008
vt 0.533670 0.211561
vt 0.977567 0.168282
vt 0.977567 0.068834
vt 0.991787 0.068834
vt 0.991787 0.168281
vt 0.932811 0.392571
vt 0.939837 0.380207
vt 0.939837 0.420288
vt 0.932811 0.432652
vt 0.517026 0.283626
vt 0.510000 0.295989
vt 0.510000 0.336070
vt 0.517026 0.323707
vt 0.314145 0.298947
vt 0.314145 0.199499
vt 0.348992 0.199499
vt 0.348992 0.298947
vt 0.246285 0.284072
vt 0.246285 0.184624
vt 0.343316 0.184624
vt 0.343316 0.284072
vt 0.832803 0.785872
vt 0.832803 0.686424
vt 0.805368 0.686424
vt 0.805368 0.785872
vt 0.298909 0.418002
vt 0.298909 0.318554
vt 0.387086 0.318554
vt 0.387086 0.418002
vt 0.686680 0.273797
vt 0.686680 0.373244
vt 0.721527 0.373244
vt 0.721527 0.273797
vt 0.641225 0.207936
vt 0.621541 0.205391
vt 0.627004 0.293568
vt 0.641225 0.293568
vt 0.687339 0.183069
vt 0.707024 0.185613
vt 0.707024 0.271246
vt 0.692803 0.271246
vt 0.568246 0.179581
vt 0.586370 0.158829
vt 0.586370 0.278512
vt 0.572783 0.292981
vt 0.768311 0.278703
vt 0.750187 0.299456
vt 0.754724 0.412855
vt 0.768311 0.398386
vt 0.350448 0.335381
vt 0.350448 0.235934
vt 0.261167 0.235934
vt 0.261167 0.335381
vt 0.964065 0.201098
vt 0.964065 0.101650
vt 0.878433 0.101650
vt 0.878433 0.201098
vt 0.977567 0.269197
vt 0.977567 0.169750
vt 0.991787 0.169750
vt 0.991787 0.269197
vt 0.413945 0.286838
vt 0.406919 0.274474
vt 0.406919 0.314555
vt 0.413945 0.326919
vt 0.705101 0.171876
vt 0.712128 0.184240
vt 0.712128 0.224321
vt 0.705101 0.211957
vt 0.884216 0.283953
vt 0.884216 0.184505
vt 0.919063 0.184505
vt 0.919063 0.283953
vt 0.804402 0.913254
vt 0.804402 0.634496
vt 0.684042 0.634496
vt 0.684041 0.913254
vt 0.789478 0.905880
vt 0.789478 0.579370
vt 0.705526 0.579370
vt 0.705526 0.905880
vt 0.637895 0.893351
vt 0.637895 0.585649
vt 0.770753 0.585649
vt 0.770753 0.893351
vt 0.811863 0.588290
vt 0.811863 0.898225
vt 0.790720 0.892978
vt 0.790720 0.724542
vt 0.788948 0.656984
vt 0.658130 0.656984
vt 0.658130 0.876664
vt 0.788948 0.876664
vt 0.680005 0.650007
vt 0.810823 0.650007
vt 0.810823 0.869687
vt 0.680005 0.869687
vt 0.760486 0.205696
vt 0.699082 0.205696
vt 0.699082 0.291304
vt 0.760486 0.291304
vt 0.759472 0.687361
vt 0.759472 0.818179
vt 0.750859 0.783472
vt 0.750859 0.722068
vt 0.678859 0.788678
vt 0.678859 0.657859
vt 0.902527 0.692567
vt 0.902527 0.753971
vt 0.836791 0.621266
vt 0.836791 0.773576
vt 0.826401 0.706618
vt 0.826401 0.623844
vt 0.707604 0.277235
vt 0.707604 0.000734
vt 0.769008 0.000734
vt 0.769008 0.277235
vt 0.661504 0.086851
vt 0.661504 0.363351
vt 0.747112 0.363351
vt 0.747112 0.086851
vt 0.433075 0.221303
vt 0.494479 0.221303
vt 0.494479 0.306911
vt 0.433075 0.306911
vt 0.599777 0.398754
vt 0.599777 0.122253
vt 0.685385 0.122253
vt 0.685385 0.398754
vt 0.193464 0.721771
vt 0.193464 0.721771
vt 0.193464 0.721771
vt 0.193464 0.721771
vt 0.000000 0.000000
vt 0.000000 0.000000
vt 0.000000 0.000000
vt 0.000000 0.000000
vt 0.406569 0.907592
vt 0.107290 0.907592
vt 0.107290 0.608313
vt 0.406569 0.608313
vt 0.000000 0.000000
vt 0.000000 0.000000
vt 0.000000 0.000000
vt 0.000000 0.000000
vt 0.106590 0.567929
vt 0.397347 0.567929
vt 0.397347 0.858685
vt 0.106591 0.858685
vn 0.0000 0.0000 1.0000
vn -1.0000 0.0000 0.0000
vn 0.0000 0.0000 -1.0000
vn 1.0000 0.0000 0.0000
vn 0.0000 -1.0000 0.0000
vn 0.0000 1.0000 0.0000
vn 0.8107 -0.5854 0.0000
vn -0.9957 -0.0924 0.0000
vn 0.0618 0.9981 -0.0000
vn -0.8694 -0.4941 -0.0000
vn -0.7867 0.6174 -0.0000
vn 0.8694 0.4941 -0.0000
vn 0.8107 0.0000 -0.5854
vn -0.9957 0.0000 -0.0924
vn 0.0618 0.0000 0.9981
vn -0.8694 0.0000 -0.4941
vn -0.7867 0.0000 0.6174
vn 0.8694 0.0000 0.4941
vn 0.8107 0.0000 0.5854
vn -0.9957 0.0000 0.0924
vn 0.0618 0.0000 -0.9981
vn -0.8694 0.0000 0.4941
vn -0.7867 0.0000 -0.6174
vn 0.8694 0.0000 -0.4941
usemtl Material
s off
f 1/1/1 2/2/1 4/3/1 3/4/1
f 3/5/2 4/6/2 8/7/2 7/8/2
f 7/9/3 8/10/3 6/11/3 5/12/3
f 5/13/4 6/14/4 2/15/4 1/16/4
f 3/17/5 7/18/5 5/19/5 1/20/5
f 8/21/6 4/22/6 2/23/6 6/24/6
f 9/25/1 10/26/1 12/27/1 11/28/1
f 11/29/2 12/30/2 16/31/2 15/32/2
f 15/33/3 16/34/3 14/35/3 13/36/3
f 13/37/4 14/38/4 10/39/4 9/40/4
f 11/41/5 15/42/5 13/43/5 9/44/5
f 16/45/6 12/46/6 10/47/6 14/48/6
f 17/49/1 18/50/1 20/51/1 19/52/1
f 19/53/2 20/54/2 24/55/2 23/56/2
f 23/57/3 24/58/3 22/59/3 21/60/3
f 21/61/4 22/62/4 18/63/4 17/64/4
f 19/65/5 23/66/5 21/67/5 17/68/5
f 24/69/6 20/70/6 18/71/6 22/72/6
f 25/73/1 26/74/1 28/75/1 27/76/1
f 27/77/2 28/78/2 32/79/2 31/80/2
f 31/81/3 32/82/3 30/83/3 29/84/3
f 29/85/4 30/86/4 26/87/4 25/88/4
f 27/89/5 31/90/5 29/91/5 25/92/5
f 32/93/6 28/94/6 26/95/6 30/96/6
f 33/97/1 34/98/1 36/99/1 35/100/1
f 35/101/2 36/102/2 40/103/2 39/104/2
f 39/105/3 40/106/3 38/107/3 37/108/3
f 38/109/4 34/110/4 42/111/4 43/112/4
f 35/113/5 39/114/5 37/115/5 33/116/5
f 40/117/6 36/118/6 34/119/6 38/120/6
f 43/121/6 42/122/6 46/123/6 47/124/6
f 37/125/4 38/126/4 43/127/4 44/128/4
f 34/129/4 33/130/4 41/131/4 42/132/4
f 33/133/4 37/134/4 44/135/4 41/136/4
f 48/137/4 47/138/4 46/139/4 45/140/4
f 44/141/3 43/142/3 47/143/3 48/144/3
f 41/145/5 44/146/5 48/147/5 45/148/5
f 42/149/1 41/150/1 45/151/1 46/152/1
f 57/153/7 58/154/7 52/155/7 51/156/7
f 51/157/8 52/158/8 56/159/8 55/160/8
f 59/161/9 60/162/9 54/163/9 53/164/9
f 50/165/10 49/166/10 61/167/10 62/168/10
f 57/169/3 59/170/3 53/171/3 49/172/3
f 60/173/1 58/174/1 50/175/1 54/176/1
f 56/177/1 52/178/1 58/179/1 60/180/1
f 51/181/3 55/182/3 59/183/3 57/184/3
f 55/185/11 56/186/11 60/187/11 59/188/11
f 49/189/5 50/190/5 58/191/5 57/192/5
f 64/193/4 63/194/4 62/195/4 61/196/4
f 49/197/3 53/198/3 64/199/3 61/200/3
f 54/201/1 50/202/1 62/203/1 63/204/1
f 53/205/12 54/206/12 63/207/12 64/208/12
f 73/209/13 74/210/13 68/211/13 67/212/13
f 67/213/14 68/214/14 72/215/14 71/216/14
f 75/217/15 76/218/15 70/219/15 69/220/15
f 66/221/16 65/222/16 77/223/16 78/224/16
f 73/225/6 75/226/6 69/227/6 65/228/6
f 76/229/5 74/230/5 66/231/5 70/232/5
f 72/233/5 68/234/5 74/235/5 76/236/5
f 67/237/6 71/238/6 75/239/6 73/240/6
f 71/241/17 72/242/17 76/243/17 75/244/17
f 65/245/3 66/246/3 74/247/3 73/248/3
f 80/249/4 79/250/4 78/251/4 77/252/4
f 65/253/6 69/254/6 80/255/6 77/256/6
f 70/257/5 66/258/5 78/259/5 79/260/5
f 69/261/18 70/262/18 79/263/18 80/264/18
f 89/265/19 90/266/19 84/267/19 83/268/19
f 83/269/20 84/270/20 88/271/20 87/272/20
f 91/273/21 92/274/21 86/275/21 85/276/21
f 82/277/22 81/278/22 93/279/22 94/280/22
f 89/281/5 91/282/5 85/283/5 81/284/5
f 92/285/6 90/286/6 82/287/6 86/288/6
f 88/289/6 84/290/6 90/291/6 92/292/6
f 83/293/5 87/294/5 91/295/5 89/296/5
f 87/297/23 88/298/23 92/299/23 91/300/23
f 81/301/1 82/302/1 90/303/1 89/304/1
f 96/305/4 95/306/4 94/307/4 93/308/4
f 81/309/5 85/310/5 96/311/5 93/312/5
f 86/313/6 82/314/6 94/315/6 95/316/6
f 85/317/24 86/318/24 95/319/24 96/320/24
f 97/321/1 98/322/1 100/323/1 99/324/1
f 99/325/2 100/326/2 104/327/2 103/328/2
f 103/329/3 104/330/3 102/331/3 101/332/3
f 98/333/4 97/334/4 105/335/4 106/336/4
f 99/337/5 103/338/5 101/339/5 97/340/5
f 104/341/6 100/342/6 98/343/6 102/344/6
f 105/345/5 108/346/5 112/347/5 109/348/5
f 97/349/4 101/350/4 108/351/4 105/352/4
f 102/353/4 98/354/4 106/355/4 107/356/4
f 101/357/4 102/358/4 107/359/4 108/360/4
f 112/361/4 111/362/4 110/363/4 109/364/4
f 106/365/1 105/366/1 109/367/1 110/368/1
f 107/369/6 106/370/6 110/371/6 111/372/6
f 108/373/3 107/374/3 111/375/3 112/376/3
f 113/377/1 114/378/1 116/379/1 115/380/1
f 115/381/2 116/382/2 120/383/2 119/384/2
f 119/385/3 120/386/3 118/387/3 117/388/3
f 117/389/4 118/390/4 114/391/4 113/392/4
f 115/381/5 119/384/5 117/389/5 113/392/5
f 120/393/6 116/394/6 114/395/6 118/396/6
