# Blender v2.78 (sub 0) OBJ File: 'drinks.blend'
# www.blender.org
o Press_Cube.001
v 0.490000 -0.450000 0.030000
v 0.490000 0.400000 0.030000
v 0.490000 -0.450000 0.130000
v 0.490000 0.400000 0.130000
v 0.350000 -0.450000 0.030000
v 0.350000 0.400000 0.030000
v 0.350000 -0.450000 0.130000
v 0.350000 0.400000 0.130000
v -0.490000 -0.450000 0.130000
v -0.490000 0.400000 0.130000
v -0.490000 -0.450000 0.030000
v -0.490000 0.400000 0.030000
v -0.350000 -0.450000 0.130000
v -0.350000 0.400000 0.130000
v -0.350000 -0.450000 0.030000
v -0.350000 0.400000 0.030000
v 0.500000 0.370000 -0.000000
v -0.500000 0.370000 -0.000000
v 0.500000 0.370000 0.160000
v -0.500000 0.370000 0.160000
v 0.500000 0.230000 -0.000000
v -0.500000 0.230000 -0.000000
v 0.500000 0.230000 0.160000
v -0.500000 0.230000 0.160000
v -0.286937 0.050000 0.080000
v -0.202895 0.050000 -0.122895
v -0.330000 -0.450000 0.080000
v -0.330000 0.050000 0.080000
v -0.233345 -0.450000 -0.153345
v -0.233345 0.050000 -0.153345
v 0.000000 -0.450000 -0.250000
v 0.000000 0.050000 -0.250000
v 0.233345 -0.450000 -0.153345
v 0.233345 0.050000 -0.153345
v 0.330000 -0.450000 0.080000
v 0.330000 0.050000 0.080000
v 0.233345 -0.450000 0.313345
v 0.233345 0.050000 0.313345
v -0.000000 -0.450000 0.410000
v -0.000000 0.050000 0.410000
v -0.233345 -0.450000 0.313345
v -0.233345 0.050000 0.313345
v 0.000000 0.050000 -0.206937
v 0.202895 0.050000 -0.122895
v 0.286937 0.050000 0.080000
v 0.202895 0.050000 0.282895
v -0.000000 0.050000 0.366937
v -0.202895 0.050000 0.282895
v -0.286937 -0.033841 0.080000
v -0.202895 -0.033841 0.282895
v -0.000000 -0.033841 0.366937
v 0.202895 -0.033841 0.282895
v 0.286937 -0.033841 0.080000
v 0.202895 -0.033841 -0.122895
v 0.000000 -0.033841 -0.206937
v -0.202895 -0.033841 -0.122895
v 0.300000 -0.500000 0.400000
v 0.400000 -0.500000 -0.400000
v -0.300000 -0.500000 0.400000
v -0.400000 -0.500000 -0.400000
v -0.000000 -0.500000 0.500000
v 0.500000 -0.500000 0.080000
v 0.000000 -0.500000 -0.500000
v -0.500000 -0.500000 0.080000
v -0.000000 -0.500000 0.080000
v 0.300000 -0.450000 0.400000
v 0.400000 -0.450000 -0.400000
v -0.300000 -0.450000 0.400000
v -0.400000 -0.450000 -0.400000
v -0.000000 -0.450000 0.500000
v 0.500000 -0.450000 0.080000
v 0.000000 -0.450000 -0.500000
v -0.500000 -0.450000 0.080000
v -0.000000 -0.450000 0.080000
v -0.280783 0.000000 0.080000
v -0.198544 0.000000 -0.118544
v 0.000000 0.000000 -0.200783
v 0.198544 0.000000 -0.118544
v 0.280783 0.000000 0.080000
v 0.198544 0.000000 0.278544
v -0.000000 0.000000 0.360783
v -0.198544 0.000000 0.278544
v -0.241395 0.372715 -0.123119
v 0.259946 0.372715 0.258765
v -0.025000 -0.005792 0.080000
v -0.025000 0.449165 0.080000
v -0.017678 -0.005792 0.062322
v -0.017678 0.449165 0.062322
v -0.000000 -0.005792 0.055000
v -0.000000 0.449165 0.055000
v 0.017678 -0.005792 0.062322
v 0.017678 0.449165 0.062322
v 0.025000 -0.005792 0.080000
v 0.025000 0.449165 0.080000
v 0.017678 -0.005792 0.097678
v 0.017678 0.449165 0.097678
v -0.000000 -0.005792 0.105000
v -0.000000 0.449165 0.105000
v -0.017678 -0.005792 0.097678
v -0.017678 0.449165 0.097678
v 0.273063 0.394363 0.241544
v -0.228277 0.394363 -0.140340
v 0.273063 0.424977 0.241544
v -0.228277 0.424978 -0.140340
v 0.259946 0.446625 0.258765
v -0.241395 0.446625 -0.123119
v 0.241395 0.446625 0.283119
v -0.259946 0.446625 -0.098765
v 0.228277 0.424977 0.300340
v -0.273063 0.424977 -0.081544
v 0.228277 0.394363 0.300340
v -0.273063 0.394363 -0.081544
v 0.241395 0.372715 0.283119
v -0.259946 0.372715 -0.098765
vt 1.0000 0.8133
vt 0.5747 0.8133
vt 0.5747 0.7632
vt 1.0000 0.7632
vt 0.5747 0.6932
vt 1.0000 0.6932
vt 0.5747 0.6431
vt 1.0000 0.6431
vt 1.0000 0.8833
vt 0.5747 0.8833
vt 0.3063 0.3026
vt 0.4945 0.0006
vt 0.7460 0.2422
vt 0.6556 0.5216
vt 0.5246 0.8833
vt 0.5246 0.8133
vt 0.5246 0.8414
vt 0.9500 0.8414
vt 0.9500 0.8914
vt 0.5246 0.8914
vt 0.9500 0.9615
vt 0.5246 0.9615
vt 0.5246 0.7213
vt 0.9500 0.7213
vt 0.9500 0.7713
vt 0.5246 0.7713
vt 0.0533 0.1441
vt 0.2265 0.0006
vt 1.0000 0.8914
vt 1.0000 0.9615
vt 0.9472 0.7427
vt 0.5705 0.7427
vt 0.5705 0.6824
vt 0.9472 0.6824
vt 0.5705 0.6296
vt 0.9472 0.6296
vt 0.9472 0.8557
vt 0.5705 0.8557
vt 0.5705 0.7954
vt 0.9472 0.7954
vt 1.0000 0.8557
vt 1.0000 0.7954
vt 0.5177 0.8557
vt 0.5177 0.7954
vt 0.7652 0.5368
vt 0.9836 0.5368
vt 0.9836 0.6201
vt 0.7652 0.6201
vt 0.7488 0.4972
vt 1.0000 0.4972
vt 0.9836 0.5368
vt 0.7652 0.5368
vt 1.0000 0.0000
vt 1.0000 0.4972
vt 0.7488 0.4972
vt 0.7488 0.0000
vt 0.9836 0.6201
vt 0.7652 0.6201
vt 0.9836 0.5368
vt 0.7652 0.5368
vt 1.0000 0.0000
vt 1.0000 0.4972
vt 0.7488 0.4972
vt 0.7488 0.0000
vt 0.7652 0.5368
vt 0.9836 0.5368
vt 0.9836 0.6201
vt 0.7652 0.6201
vt 0.7488 0.4972
vt 1.0000 0.4972
vt 0.9836 0.5368
vt 0.7652 0.5368
vt 1.0000 0.0000
vt 0.7488 0.0000
vt 0.7652 0.5368
vt 0.9836 0.5368
vt 0.9836 0.6201
vt 0.7652 0.6201
vt 0.9836 0.5368
vt 0.7652 0.5368
vt 1.0000 0.0000
vt 1.0000 0.4972
vt 0.7488 0.4972
vt 0.7488 0.0000
vt 0.9836 0.6201
vt 0.7652 0.6201
vt 0.7488 0.4972
vt 1.0000 0.4972
vt 1.0000 0.0000
vt 0.7488 0.0000
vt 0.1181 0.6046
vt 0.4448 0.7254
vt 0.7488 0.4972
vt 1.0000 0.4972
vt 0.9836 0.5368
vt 0.7652 0.5368
vt 1.0000 0.0000
vt 0.7488 0.0000
vt 0.9836 0.6201
vt 0.7652 0.6201
vt 1.0000 0.0000
vt 1.0000 0.4972
vt 0.7488 0.4972
vt 0.7488 0.0000
vt 0.9836 0.6201
vt 0.7652 0.6201
vt 1.0000 0.0000
vt 0.7488 0.0000
vt 0.0006 0.3630
vt 0.9836 0.6201
vt 0.7652 0.6201
vt 0.3057 0.3020
vt 0.6550 0.5209
vt 0.4442 0.7248
vt 0.1174 0.6040
vt 0.0527 0.1434
vt 0.0000 0.3624
vt 0.4939 0.0000
vt 0.7453 0.2416
vt 0.2259 0.0000
vt 0.4840 0.9815
vt 0.6645 0.9816
vt 0.6645 1.0000
vt 0.4840 0.9999
vt 0.1389 1.0000
vt 0.0000 1.0000
vt 0.0000 0.9816
vt 0.1389 0.9816
vt 0.5106 1.0000
vt 0.3717 1.0000
vt 0.3717 0.9816
vt 0.5106 0.9816
vt 0.0000 0.9814
vt 0.1805 0.9814
vt 0.1805 0.9998
vt 0.0000 0.9998
vt 0.3323 0.9815
vt 0.3322 0.9999
vt 0.2553 1.0000
vt 0.2553 0.9816
vt 0.2489 0.4939
vt 0.1374 0.3825
vt 0.1374 0.2249
vt 0.2489 0.1134
vt 0.4065 0.1134
vt 0.5180 0.2249
vt 0.5180 0.3825
vt 0.4065 0.4939
vt 0.9532 0.8586
vt 0.9418 0.8699
vt 0.9258 0.8699
vt 0.9145 0.8586
vt 0.9145 0.8425
vt 0.9258 0.8312
vt 0.9418 0.8312
vt 0.9532 0.8425
vt 0.0160 0.8312
vt 0.4121 0.8312
vt 0.4121 0.8479
vt 0.0160 0.8479
vt 0.5843 0.8425
vt 0.5843 0.8586
vt 0.4121 0.8645
vt 0.0160 0.8645
vt 0.5843 0.9548
vt 0.9145 0.9548
vt 0.9145 0.9709
vt 0.5843 0.9709
vt 0.4121 0.8812
vt 0.0160 0.8812
vt 0.5843 0.9388
vt 0.9145 0.9388
vt 0.4121 0.8978
vt 0.0160 0.8978
vt 0.5569 0.8699
vt 0.5456 0.8586
vt 0.5456 0.8425
vt 0.5569 0.8312
vt 0.5730 0.8312
vt 0.5730 0.8699
vt 0.5843 0.9227
vt 0.9145 0.9227
vt 0.0160 0.7646
vt 0.4121 0.7646
vt 0.4121 0.7812
vt 0.0160 0.7812
vt 0.5843 0.8746
vt 0.9145 0.8746
vt 0.9145 0.8907
vt 0.5843 0.8907
vt 0.5843 0.9067
vt 0.9145 0.9067
vt 0.4121 0.7979
vt 0.0160 0.7979
vt 0.4523 0.7646
vt 0.4523 0.7812
vt 0.4405 0.7930
vt 0.4239 0.7930
vt 0.4239 0.7528
vt 0.4405 0.7528
vt 0.4121 0.8145
vt 0.0160 0.8145
vn 1.0000 0.0000 0.0000
vn 0.0000 0.0000 1.0000
vn -1.0000 0.0000 0.0000
vn 0.0000 0.0000 -1.0000
vn 0.0000 -1.0000 -0.0000
vn 0.0000 1.0000 0.0000
vn -0.9239 0.0000 0.3827
vn -0.9239 0.0000 -0.3827
vn -0.3827 0.0000 0.9239
vn -0.3827 0.0000 -0.9239
vn 0.3827 0.0000 -0.9239
vn 0.9239 0.0000 -0.3827
vn 0.3827 0.0000 0.9239
vn 0.9239 0.0000 0.3827
vn -0.9790 0.0000 -0.2040
vn 0.8480 0.0000 0.5300
vn -0.8480 0.0000 0.5300
vn 0.9790 0.0000 -0.2040
vn 0.2425 0.0000 -0.9701
vn -0.3162 0.0000 0.9487
vn -0.2425 0.0000 -0.9701
vn 0.3162 0.0000 0.9487
vn -0.7955 -0.0000 -0.6060
vn -0.6060 -0.0000 0.7955
vn -0.4285 0.7071 0.5625
vn 0.7955 -0.0000 0.6060
vn 0.4285 0.7071 -0.5625
vn 0.6060 -0.0000 -0.7955
vn 0.4285 -0.7071 -0.5625
vn -0.4285 -0.7071 0.5625
g Press_Cube.001_None
s off
f 1/1/1 2/2/1 4/3/1 3/4/1
f 3/4/2 4/3/2 8/5/2 7/6/2
f 7/6/3 8/5/3 6/7/3 5/8/3
f 5/9/4 6/10/4 2/2/4 1/1/4
f 65/11/5 64/12/5 60/13/5 63/14/5
f 8/15/6 4/16/6 2/2/6 6/10/6
f 9/17/3 10/18/3 12/19/3 11/20/3
f 11/20/4 12/19/4 16/21/4 15/22/4
f 15/23/1 16/24/1 14/25/1 13/26/1
f 13/26/2 14/25/2 10/18/2 9/17/2
f 61/27/5 59/28/5 64/12/5 65/11/5
f 16/21/6 12/19/6 10/29/6 14/30/6
f 17/31/6 18/32/6 20/33/6 19/34/6
f 19/34/2 20/33/2 24/35/2 23/36/2
f 23/37/5 24/38/5 22/39/5 21/40/5
f 21/40/4 22/39/4 18/32/4 17/31/4
f 19/41/1 23/37/1 21/40/1 17/42/1
f 24/38/3 20/43/3 18/44/3 22/39/3
f 45/45/7 44/46/7 54/47/7 53/48/7
f 34/49/6 32/50/6 43/51/6 44/52/6
f 27/53/8 28/54/8 30/55/8 29/56/8
f 44/52/9 43/51/9 55/57/9 54/58/9
f 30/55/6 28/54/6 25/59/6 26/60/6
f 29/61/10 30/62/10 32/63/10 31/64/10
f 46/65/8 45/66/8 53/67/8 52/68/8
f 40/69/6 38/70/6 46/71/6 47/72/6
f 31/73/11 32/50/11 34/49/11 33/74/11
f 48/75/11 47/76/11 51/77/11 50/78/11
f 32/63/6 30/62/6 26/79/6 43/80/6
f 33/81/12 34/82/12 36/83/12 35/84/12
f 43/80/13 26/79/13 56/85/13 55/86/13
f 38/87/6 36/88/6 45/66/6 46/65/6
f 35/89/14 36/88/14 38/87/14 37/90/14
f 62/91/5 65/11/5 63/14/5 58/92/5
f 28/93/6 42/94/6 48/95/6 25/96/6
f 37/97/13 38/70/13 40/69/13 39/98/13
f 36/83/6 34/82/6 44/46/6 45/45/6
f 47/72/10 46/71/10 52/99/10 51/100/10
f 39/101/9 40/102/9 42/103/9 41/104/9
f 26/60/14 25/59/14 49/105/14 56/106/14
f 42/103/6 40/102/6 47/76/6 48/75/6
f 41/107/7 42/94/7 28/93/7 27/108/7
f 57/109/5 61/27/5 65/11/5 62/91/5
f 25/96/12 48/95/12 50/110/12 49/111/12
f 74/112/6 72/113/6 69/114/6 73/115/6
f 70/116/6 74/112/6 73/115/6 68/117/6
f 71/118/6 67/119/6 72/113/6 74/112/6
f 66/120/6 71/118/6 74/112/6 70/116/6
f 60/121/15 64/122/15 73/123/15 69/124/15
f 57/125/16 62/126/16 71/127/16 66/128/16
f 64/129/17 59/130/17 68/131/17 73/132/17
f 62/133/18 58/134/18 67/135/18 71/136/18
f 58/134/19 63/137/19 72/138/19 67/135/19
f 59/130/20 61/139/20 70/140/20 68/131/20
f 63/137/21 60/121/21 69/124/21 72/138/21
f 61/139/22 57/125/22 66/128/22 70/140/22
f 75/141/6 82/142/6 81/143/6 80/144/6 79/145/6 78/146/6 77/147/6 76/148/6
f 102/149/23 83/150/23 114/151/23 112/152/23 110/153/23 108/154/23 106/155/23 104/156/23
f 85/157/8 86/158/8 88/159/8 87/160/8
f 109/161/24 110/153/24 112/152/24 111/162/24
f 87/160/10 88/159/10 90/163/10 89/164/10
f 107/165/25 108/166/25 110/167/25 109/168/25
f 89/164/11 90/163/11 92/169/11 91/170/11
f 105/171/6 106/172/6 108/166/6 107/165/6
f 91/170/12 92/169/12 94/173/12 93/174/12
f 84/175/26 101/176/26 103/177/26 105/178/26 107/179/26 109/161/26 111/162/26 113/180/26
f 103/181/27 104/182/27 106/172/27 105/171/27
f 93/183/14 94/184/14 96/185/14 95/186/14
f 113/187/5 114/188/5 83/189/5 84/190/5
f 101/191/28 102/192/28 104/182/28 103/181/28
f 95/186/13 96/185/13 98/193/13 97/194/13
f 88/195/6 86/196/6 100/197/6 98/198/6 96/185/6 94/184/6 92/199/6 90/200/6
f 84/190/29 83/189/29 102/192/29 101/191/29
f 97/194/9 98/193/9 100/201/9 99/202/9
f 111/162/30 112/152/30 114/188/30 113/187/30
f 99/202/7 100/201/7 86/158/7 85/157/7
