# Blender v2.81 (sub 16) OBJ File: 'capstone.blend'
# www.blender.org
mtllib underworld_capstone.mtl
o Cube
v 0.000000 0.500000 0.000000
v 0.500000 -0.500000 -0.500000
v 0.500000 -0.500000 0.500000
v -0.500000 -0.500000 -0.500000
v -0.500000 -0.500000 0.500000
vt 1.000000 1.000000
vt 0.000000 0.000000
vt 0.000000 1.000000
vt 1.000000 0.000000
vt 0.500000 1.000000
vt 1.000000 0.000000
vt 1.000000 0.000000
vt 0.000000 0.000000
vt 0.000000 0.000000
vn 0.0000 -1.0000 0.0000
vn 0.0000 0.4472 0.8944
vn -0.8944 0.4472 0.0000
vn 0.8944 0.4472 0.0000
vn 0.0000 0.4472 -0.8944
g Cube_Cube_Material
usemtl Material
s off
f 2/1/1 5/2/1 4/3/1
f 2/1/1 3/4/1 5/2/1
g Cube_Cube_side
usemtl side
f 3/4/2 1/5/2 5/2/2
f 5/2/3 1/5/3 4/6/3
f 2/7/4 1/5/4 3/8/4
f 4/9/5 1/5/5 2/7/5
